<?xml version="1.0" encoding="UTF-8" standalone="no"?>
<!-- Created with Inkscape (http://www.inkscape.org/) -->

<svg
   xmlns:dc="http://purl.org/dc/elements/1.1/"
   xmlns:cc="http://creativecommons.org/ns#"
   xmlns:rdf="http://www.w3.org/1999/02/22-rdf-syntax-ns#"
   xmlns:svg="http://www.w3.org/2000/svg"
   xmlns="http://www.w3.org/2000/svg"
   xmlns:sodipodi="http://sodipodi.sourceforge.net/DTD/sodipodi-0.dtd"
   xmlns:inkscape="http://www.inkscape.org/namespaces/inkscape"
   id="svg2"
   version="1.1"
   inkscape:version="0.91 r13725"
   xml:space="preserve"
   width="898.14813"
   height="446.12589"
   viewBox="0 0 898.14809 446.12588"
   sodipodi:docname="archer_logo.svg"><metadata
     id="metadata8"><rdf:RDF><cc:Work
         rdf:about=""><dc:format>image/svg+xml</dc:format><dc:type
           rdf:resource="http://purl.org/dc/dcmitype/StillImage" /><dc:title></dc:title></cc:Work></rdf:RDF></metadata><defs
     id="defs6"><clipPath
       clipPathUnits="userSpaceOnUse"
       id="clipPath16"><path
         d="m 0,0 841.89,0 0,595.276 L 0,595.276 0,0 Z"
         id="path18"
         inkscape:connector-curvature="0" /></clipPath></defs><sodipodi:namedview
     pagecolor="#ffffff"
     bordercolor="#666666"
     borderopacity="1"
     objecttolerance="10"
     gridtolerance="10"
     guidetolerance="10"
     inkscape:pageopacity="0"
     inkscape:pageshadow="2"
     inkscape:window-width="640"
     inkscape:window-height="480"
     id="namedview4"
     showgrid="false"
     fit-margin-top="0"
     fit-margin-left="0"
     fit-margin-right="0"
     fit-margin-bottom="0"
     inkscape:zoom="0.31716382"
     inkscape:cx="470.21902"
     inkscape:cy="179.44989"
     inkscape:window-x="0"
     inkscape:window-y="0"
     inkscape:window-maximized="0"
     inkscape:current-layer="g10" /><g
     id="g10"
     inkscape:groupmode="layer"
     inkscape:label="archer_logo"
     transform="matrix(1.25,0,0,-1.25,-55.96225,638.7235)"><g
       id="g12"><g
         id="g14"
         clip-path="url(#clipPath16)"><g
           id="g20"
           transform="translate(763.2883,268.0781)"><path
             d="m 0,0 0,28.5 -57,0 c -7.87,0 -14.622,-2.822 -20.262,-8.461 C -82.755,14.546 -85.5,7.866 -85.5,0 l 0,-67.945 28.5,0 L -57,0 0,0 Z m -110.838,-48.762 c 5.639,5.64 8.461,12.392 8.461,20.262 l 0,28.5 c 0,7.866 -2.822,14.546 -8.461,20.039 -5.494,5.639 -12.173,8.461 -20.039,8.461 l -28.5,0 c -7.87,0 -14.623,-2.822 -20.262,-8.461 -5.493,-5.493 -8.238,-12.173 -8.238,-20.039 l 0,-67.945 28.5,0 0,10.945 28.5,0 c 7.866,0 14.545,2.745 20.039,8.238 m -20.039,20.262 -28.5,0 0,28.5 28.5,0 0,-28.5 z m -73.878,-39.445 0,67.945 c 0,7.866 -2.821,14.546 -8.461,20.039 -5.493,5.639 -12.173,8.461 -20.039,8.461 l -28.5,0 0,57 -28.5,0 0,-153.445 28.5,0 0,67.945 28.5,0 0,-67.945 28.5,0 z M -364.132,0 l 57,0 0,28.5 -57,0 c -7.869,0 -14.622,-2.822 -20.262,-8.461 -5.493,-5.493 -8.238,-12.173 -8.238,-20.039 l 0,-67.945 28.5,0 0,67.945 z m -102.377,0 57,0 0,28.5 -57,0 c -7.87,0 -14.622,-2.822 -20.262,-8.461 -5.493,-5.493 -8.238,-12.173 -8.238,-20.039 l 0,-67.945 28.5,0 0,67.945 z m -45.378,-67.945 0,67.945 c 0,7.866 -2.821,14.546 -8.461,20.039 -5.493,5.639 -12.173,8.461 -20.039,8.461 l -57,0 0,-28.5 57,0 0,-28.5 -28.5,0 c -7.869,0 -14.622,-2.822 -20.261,-8.461 -5.494,-5.493 -8.239,-12.173 -8.239,-20.039 l 0,-10.945 28.5,0 0,10.945 28.5,0 0,-10.945 28.5,0 z m -85.5,-8.617 0,-8.938 c 0,-7.87 2.745,-14.622 8.239,-20.262 5.639,-5.493 12.319,-8.238 20.039,-8.238 l 0.222,0 28.5,0 c 7.866,0 14.546,2.745 20.039,8.238 5.64,5.64 8.461,12.392 8.461,20.262 l 0,8.938 -28.5,0 0,-8.938 -28.5,0 0,8.938 -28.5,0 z m 102.378,-37.438 28.5,0 0,37.438 -28.5,0 0,-37.438 z m 102.377,37.438 0,-8.938 c 0,-7.87 2.745,-14.622 8.238,-20.262 5.64,-5.493 12.32,-8.238 20.039,-8.238 l 0.223,0 57,0 0,28.5 -57,0 0,8.938 -28.5,0 z m 102.377,-37.438 28.5,0 0,37.438 -28.5,0 0,-37.438 z m 57,0 28.5,0 0,37.438 -28.5,0 0,-37.438 z m 45.378,37.438 0,-8.938 c 0,-7.87 2.745,-14.622 8.238,-20.262 5.639,-5.493 12.319,-8.238 20.039,-8.238 l 0.223,0 57,0 0,28.5 -57,0 0,8.938 -28.5,0 z M -85.5,-114 l 28.5,0 0,37.438 -28.5,0 0,-37.438 z"
             style="fill:#317f08;fill-opacity:1;fill-rule:nonzero;stroke:none"
             id="path22"
             inkscape:connector-curvature="0" /></g></g></g><g
       id="g24"
       transform="translate(113.5476,273.6233)"><path
         d="M 0,0 8.596,0.601 9.197,-7.995 0.601,-8.596 0,0 Z"
         style="fill:#547f3d;fill-opacity:1;fill-rule:nonzero;stroke:none"
         id="path26"
         inkscape:connector-curvature="0" /></g><g
       id="g28"
       transform="translate(107.123,288.2912)"><path
         d="M 0,0 10.745,0.751 11.497,-9.994 0.751,-10.745 0,0 Z"
         style="fill:#547f3d;fill-opacity:1;fill-rule:nonzero;stroke:none"
         id="path30"
         inkscape:connector-curvature="0" /></g><g
       id="g32"
       transform="translate(101.4723,307.3323)"><path
         d="M 0,0 15.044,1.052 16.096,-13.992 1.052,-15.044 0,0 Z"
         style="fill:#56973d;fill-opacity:1;fill-rule:nonzero;stroke:none"
         id="path34"
         inkscape:connector-curvature="0" /></g><g
       id="g36"
       transform="translate(96.5956,330.7469)"><path
         d="M 0,0 19.342,1.353 20.694,-17.989 1.353,-19.342 0,0 Z"
         style="fill:#56973d;fill-opacity:1;fill-rule:nonzero;stroke:none"
         id="path38"
         inkscape:connector-curvature="0" /></g><g
       id="g40"
       transform="translate(94.642,358.6849)"><path
         d="M 0,0 23.64,1.653 25.293,-21.987 1.653,-23.64 0,0 Z"
         style="fill:#317f08;fill-opacity:1;fill-rule:nonzero;stroke:none"
         id="path42"
         inkscape:connector-curvature="0" /></g><g
       id="g44"
       transform="translate(97.7604,391.2968)"><path
         d="M 0,0 27.938,1.954 29.892,-25.984 1.954,-27.938 0,0 Z"
         style="fill:#317f08;fill-opacity:1;fill-rule:nonzero;stroke:none"
         id="path46"
         inkscape:connector-curvature="0" /></g><g
       id="g48"
       transform="translate(109.1747,428.808)"><path
         d="M 0,0 32.236,2.254 34.49,-29.982 2.254,-32.236 0,0 Z"
         style="fill:#4fcc10;fill-opacity:1;fill-rule:nonzero;stroke:none"
         id="path50"
         inkscape:connector-curvature="0" /></g><g
       id="g52"
       transform="translate(133.354,456.414)"><path
         d="M 0,0 27.938,1.954 29.892,-25.984 1.954,-27.938 0,0 Z"
         style="fill:#4fcc10;fill-opacity:1;fill-rule:nonzero;stroke:none"
         id="path54"
         inkscape:connector-curvature="0" /></g><g
       id="g56"
       transform="translate(160.165,474.4857)"><path
         d="M 0,0 23.64,1.653 25.293,-21.987 1.653,-23.64 0,0 Z"
         style="fill:#63ff10;fill-opacity:1;fill-rule:nonzero;stroke:none"
         id="path58"
         inkscape:connector-curvature="0" /></g><g
       id="g60"
       transform="translate(186.9111,488.2337)"><path
         d="M 0,0 19.342,1.353 20.694,-17.989 1.353,-19.342 0,0 Z"
         style="fill:#63ff10;fill-opacity:1;fill-rule:nonzero;stroke:none"
         id="path62"
         inkscape:connector-curvature="0" /></g><g
       id="g64"
       transform="translate(209.8099,495.2339)"><path
         d="M 0,0 15.044,1.052 16.096,-13.992 1.052,-15.044 0,0 Z"
         style="fill:#95ff5c;fill-opacity:1;fill-rule:nonzero;stroke:none"
         id="path66"
         inkscape:connector-curvature="0" /></g><g
       id="g68"
       transform="translate(228.5608,499.7845)"><path
         d="M 0,0 10.745,0.751 11.497,-9.994 0.751,-10.745 0,0 Z"
         style="fill:#95ff5c;fill-opacity:1;fill-rule:nonzero;stroke:none"
         id="path70"
         inkscape:connector-curvature="0" /></g><g
       id="g72"
       transform="translate(243.1638,501.8854)"><path
         d="M 0,0 8.596,0.601 9.197,-7.995 0.601,-8.596 0,0 Z"
         style="fill:#95ff5c;fill-opacity:1;fill-rule:nonzero;stroke:none"
         id="path74"
         inkscape:connector-curvature="0" /></g><g
       id="g76"
       transform="translate(120.6416,196.1772)"><path
         d="M 0,0 -0.088,10.067 9.979,10.155 10.067,0.088 0,0 Z"
         style="fill:#547f3d;fill-opacity:1;fill-rule:nonzero;stroke:none"
         id="path78"
         inkscape:connector-curvature="0" /></g><g
       id="g80"
       transform="translate(107.0366,209.0184)"><path
         d="M 0,0 -0.11,12.584 12.474,12.694 12.584,0.11 0,0 Z"
         style="fill:#547f3d;fill-opacity:1;fill-rule:nonzero;stroke:none"
         id="path82"
         inkscape:connector-curvature="0" /></g><g
       id="g84"
       transform="translate(92.2676,226.9163)"><path
         d="M 0,0 -0.154,17.618 17.464,17.771 17.618,0.154 0,0 Z"
         style="fill:#56973d;fill-opacity:1;fill-rule:nonzero;stroke:none"
         id="path86"
         inkscape:connector-curvature="0" /></g><g
       id="g88"
       transform="translate(76.3347,249.8705)"><path
         d="M 0,0 -0.198,22.651 22.454,22.849 22.651,0.198 0,0 Z"
         style="fill:#56973d;fill-opacity:1;fill-rule:nonzero;stroke:none"
         id="path90"
         inkscape:connector-curvature="0" /></g><g
       id="g92"
       transform="translate(61.4803,279.0241)"><path
         d="M 0,0 -0.242,27.685 27.443,27.926 27.685,0.242 0,0 Z"
         style="fill:#317f08;fill-opacity:1;fill-rule:nonzero;stroke:none"
         id="path94"
         inkscape:connector-curvature="0" /></g><g
       id="g96"
       transform="translate(49.947,315.5192)"><path
         d="M 0,0 -0.286,32.718 32.433,33.004 32.718,0.286 0,0 Z"
         style="fill:#317f08;fill-opacity:1;fill-rule:nonzero;stroke:none"
         id="path98"
         inkscape:connector-curvature="0" /></g><g
       id="g100"
       transform="translate(45.0988,361.07)"><path
         d="M 0,0 -0.329,37.752 37.423,38.081 37.752,0.329 0,0 Z"
         style="fill:#4fcc10;fill-opacity:1;fill-rule:nonzero;stroke:none"
         id="path102"
         inkscape:connector-curvature="0" /></g><g
       id="g104"
       transform="translate(58.4999,401.7956)"><path
         d="M 0,0 -0.286,32.718 32.433,33.004 32.718,0.286 0,0 Z"
         style="fill:#4fcc10;fill-opacity:1;fill-rule:nonzero;stroke:none"
         id="path106"
         inkscape:connector-curvature="0" /></g><g
       id="g108"
       transform="translate(79.0834,433.4693)"><path
         d="M 0,0 -0.242,27.685 27.443,27.926 27.685,0.242 0,0 Z"
         style="fill:#63ff10;fill-opacity:1;fill-rule:nonzero;stroke:none"
         id="path110"
         inkscape:connector-curvature="0" /></g><g
       id="g112"
       transform="translate(101.5709,460.4636)"><path
         d="M 0,0 -0.198,22.651 22.454,22.849 22.651,0.198 0,0 Z"
         style="fill:#63ff10;fill-opacity:1;fill-rule:nonzero;stroke:none"
         id="path114"
         inkscape:connector-curvature="0" /></g><g
       id="g116"
       transform="translate(123.0013,478.4448)"><path
         d="M 0,0 -0.154,17.618 17.464,17.771 17.618,0.154 0,0 Z"
         style="fill:#95ff5c;fill-opacity:1;fill-rule:nonzero;stroke:none"
         id="path118"
         inkscape:connector-curvature="0" /></g><g
       id="g120"
       transform="translate(141.0891,491.8981)"><path
         d="M 0,0 -0.11,12.584 12.474,12.694 12.584,0.11 0,0 Z"
         style="fill:#95ff5c;fill-opacity:1;fill-rule:nonzero;stroke:none"
         id="path122"
         inkscape:connector-curvature="0" /></g><g
       id="g124"
       transform="translate(155.8344,500.8238)"><path
         d="M 0,0 -0.088,10.067 9.979,10.155 10.067,0.088 0,0 Z"
         style="fill:#95ff5c;fill-opacity:1;fill-rule:nonzero;stroke:none"
         id="path126"
         inkscape:connector-curvature="0" /></g></g></svg>