<?xml version="1.0" encoding="UTF-8" standalone="no"?>
<!-- Created with Inkscape (http://www.inkscape.org/) -->

<svg
   xmlns:dc="http://purl.org/dc/elements/1.1/"
   xmlns:cc="http://creativecommons.org/ns#"
   xmlns:rdf="http://www.w3.org/1999/02/22-rdf-syntax-ns#"
   xmlns:svg="http://www.w3.org/2000/svg"
   xmlns="http://www.w3.org/2000/svg"
   xmlns:sodipodi="http://sodipodi.sourceforge.net/DTD/sodipodi-0.dtd"
   xmlns:inkscape="http://www.inkscape.org/namespaces/inkscape"
   id="svg2"
   version="1.1"
   inkscape:version="0.48.2 r9819"
   width="220.53488"
   height="37.678967"
   xml:space="preserve"
   sodipodi:docname="llnl-logo.pdf"
   inkscape:export-filename="/Users/atzeni1/Documents/PhD/Research/Projects/PRUNER/Internship/Poster/Poster/Poster/figures/llnl-logo.png"
   inkscape:export-xdpi="90"
   inkscape:export-ydpi="90"><metadata
     id="metadata8"><rdf:RDF><cc:Work
         rdf:about=""><dc:format>image/svg+xml</dc:format><dc:type
           rdf:resource="http://purl.org/dc/dcmitype/StillImage" /><dc:title></dc:title></cc:Work></rdf:RDF></metadata><defs
     id="defs6"><clipPath
       clipPathUnits="userSpaceOnUse"
       id="clipPath18"><path
         d="M 0,792 612,792 612,0 0,0 0,792 z"
         id="path20"
         inkscape:connector-curvature="0" /></clipPath></defs><sodipodi:namedview
     pagecolor="#ffffff"
     bordercolor="#666666"
     borderopacity="1"
     objecttolerance="10"
     gridtolerance="10"
     guidetolerance="10"
     inkscape:pageopacity="0"
     inkscape:pageshadow="2"
     inkscape:window-width="2560"
     inkscape:window-height="1308"
     id="namedview4"
     showgrid="false"
     fit-margin-top="0"
     fit-margin-left="0"
     fit-margin-right="0"
     fit-margin-bottom="0"
     inkscape:zoom="2.21"
     inkscape:cx="288.4514"
     inkscape:cy="27.924508"
     inkscape:window-x="0"
     inkscape:window-y="0"
     inkscape:window-maximized="1"
     inkscape:current-layer="g10" /><g
     id="g10"
     inkscape:groupmode="layer"
     inkscape:label="lab_logo"
     transform="matrix(1.25,0,0,-1.25,-130.58,825.79663)"><g
       id="g3698"><text
   y="-647.92291"
   x="135.1846"
   id="text32"
   transform="scale(1,-1)"><tspan
     id="tspan34"
     sodipodi:role="line"
     y="-647.92291"
     x="135.1846 144.42596 152.76932 164.73738 170.35403 178.69739 187.93875 196.2821 204.62546 208.42976 217.67113 221.47543 229.81879 238.16214 243.77879 257.5592 266.80057 272.41724"
     style="font-size:16.32749939px;font-variant:normal;font-weight:bold;font-stretch:normal;writing-mode:lr-tb;fill:#1e59ae;fill-opacity:1;fill-rule:nonzero;stroke:none;font-family:Arial;-inkscape-font-specification:Arial-BoldMT">Lawrence Livermore</tspan><tspan
     id="tspan36"
     sodipodi:role="line"
     y="-633.93024"
     x="135.1846 146.23831 154.58167 159.284 163.0883 172.32967 181.57103 189.91438 193.71869 197.52299 206.76436 215.10771 224.34908 233.59044 239.20709 247.55045 252.25278 261.49414 267.11078"
     style="font-size:16.32749939px;font-variant:normal;font-weight:bold;font-stretch:normal;writing-mode:lr-tb;fill:#1e59ae;fill-opacity:1;fill-rule:nonzero;stroke:none;font-family:Arial;-inkscape-font-specification:Arial-BoldMT">National Laboratory</tspan></text>


<path
   inkscape:connector-curvature="0"
   id="path38"
   style="fill:#ffffff;fill-opacity:1;fill-rule:nonzero;stroke:none"
   d="m 129.872,633.924 -25.408,0 0,26.385 25.408,0 0,-26.385 z" /><g
   transform="translate(106.561,660.2998)"
   id="g40"><path
     inkscape:connector-curvature="0"
     id="path42"
     style="fill:#1e59ae;fill-opacity:1;fill-rule:nonzero;stroke:none"
     d="m 0,0 -2.081,0 0,-26.381 25.369,0 0,13.922 -10.575,-10.94 -4.725,0 C 4.754,-23.287 0.141,-20.813 0,-14.935 L 0,0 z" /></g><path
   inkscape:connector-curvature="0"
   id="path44"
   style="fill:#1e59ae;fill-opacity:1;fill-rule:nonzero;stroke:none"
   d="m 129.849,660.3 -11.869,0 0,-11.868 11.869,0 0,11.868 z" /><g
   transform="translate(110.1616,660.2998)"
   id="g46"><path
     inkscape:connector-curvature="0"
     id="path48"
     style="fill:none;stroke:#1e59ae;stroke-width:0.67500001;stroke-linecap:butt;stroke-linejoin:miter;stroke-miterlimit:10;stroke-opacity:1;stroke-dasharray:none"
     d="m 0,0 0,-14.568 c -0.057,-2.925 2.222,-4.922 4.584,-5.203 l 8.831,0 4.135,4.078 -11.982,0 c -0.927,0.055 -1.462,0.674 -1.518,1.462 L 4.05,0" /></g></g></g></svg>