<?xml version="1.0" encoding="UTF-8" standalone="no"?>
<!-- Created with Inkscape (http://www.inkscape.org/) -->

<svg
   xmlns:dc="http://purl.org/dc/elements/1.1/"
   xmlns:cc="http://creativecommons.org/ns#"
   xmlns:rdf="http://www.w3.org/1999/02/22-rdf-syntax-ns#"
   xmlns:svg="http://www.w3.org/2000/svg"
   xmlns="http://www.w3.org/2000/svg"
   xmlns:sodipodi="http://sodipodi.sourceforge.net/DTD/sodipodi-0.dtd"
   xmlns:inkscape="http://www.inkscape.org/namespaces/inkscape"
   id="svg3406"
   version="1.1"
   inkscape:version="0.91 r13725"
   xml:space="preserve"
   width="322.19519"
   height="62.441105"
   viewBox="0 0 322.19519 62.441105"
   sodipodi:docname="pruner_logo.svg"><metadata
     id="metadata3412"><rdf:RDF><cc:Work
         rdf:about=""><dc:format>image/svg+xml</dc:format><dc:type
           rdf:resource="http://purl.org/dc/dcmitype/StillImage" /><dc:title></dc:title></cc:Work></rdf:RDF></metadata><defs
     id="defs3410" /><sodipodi:namedview
     pagecolor="#ffffff"
     bordercolor="#ffffff"
     borderopacity="0"
     objecttolerance="10"
     gridtolerance="10"
     guidetolerance="10"
     inkscape:pageopacity="0"
     inkscape:pageshadow="2"
     inkscape:window-width="1280"
     inkscape:window-height="687"
     id="namedview3408"
     showgrid="false"
     inkscape:zoom="1"
     inkscape:cx="142.34527"
     inkscape:cy="54.260119"
     inkscape:window-x="0"
     inkscape:window-y="1"
     inkscape:window-maximized="1"
     inkscape:current-layer="g3414"
     fit-margin-top="0"
     fit-margin-left="0"
     fit-margin-right="0"
     fit-margin-bottom="0" /><g
     id="g3414"
     inkscape:groupmode="layer"
     inkscape:label="PRUNERS Logo"
     transform="matrix(1.25,0,0,-1.25,-289.11063,426.88125)"><g
       id="text3430"
       style="font-variant:normal;font-weight:bold;font-size:60px;font-family:Corbel;-inkscape-font-specification:Corbel-Bold;writing-mode:lr-tb;fill:#d3430a;fill-opacity:1;fill-rule:nonzero;stroke:none"
       transform="matrix(1,0,0,-1,226.601,296.92453)"
       inkscape:export-xdpi="179.89"
       inkscape:export-ydpi="179.89"><path
         inkscape:connector-curvature="0"
         id="path3471"
         d="m 15.527344,-15.175781 q -0.966797,0 -1.904297,-0.0293 -0.9375,-0.0293 -1.757813,-0.117188 L 11.865234,0 4.6875,0 l 0,-39.199219 11.308594,0 q 2.841797,0 4.951172,0.263672 2.138671,0.234375 3.808593,0.732422 4.013672,1.230469 6.181641,3.925781 2.167969,2.695313 2.167969,6.855469 0,2.841797 -1.171875,5.126953 -1.171875,2.25586 -3.427735,3.837891 -2.255859,1.582031 -5.507812,2.43164 -3.251953,0.84961 -7.470703,0.84961 z m -3.66211,-6.181641 q 0.615235,0.08789 1.552735,0.146485 0.966797,0.0293 1.992187,0.0293 2.900391,0 4.863281,-0.46875 1.962891,-0.46875 3.164063,-1.289062 1.201172,-0.849609 1.728516,-2.021484 0.527343,-1.201172 0.527343,-2.607422 0,-1.728516 -0.791015,-2.988282 -0.791016,-1.259765 -2.753907,-1.96289 -1.02539,-0.351563 -2.548828,-0.498047 -1.49414,-0.175781 -3.691406,-0.175781 l -4.042969,0 0,11.835937 z" /><path
         inkscape:connector-curvature="0"
         id="path3473"
         d="m 69.727406,-27.421875 q 0,4.101563 -2.285157,6.972656 -2.255859,2.841797 -7.001953,4.21875 l 0,0.117188 L 72.100452,0 63.487171,0 52.823109,-15.175781 l -4.921875,0 0,15.175781 -7.177735,0 0,-39.199219 11.923828,0 q 2.958985,0 5.507813,0.351563 2.548828,0.322265 4.365234,0.996094 3.457032,1.318359 5.332032,3.925781 1.875,2.578125 1.875,6.503906 z m -18.28125,6.240234 q 2.460937,0 4.160156,-0.205078 1.728515,-0.234375 2.90039,-0.673828 2.167969,-0.820312 2.988282,-2.226562 0.849609,-1.435547 0.849609,-3.28125 0,-1.582032 -0.673828,-2.783203 -0.644531,-1.230469 -2.226563,-1.933594 -1.02539,-0.46875 -2.578125,-0.673828 -1.552734,-0.234375 -3.83789,-0.234375 l -5.126953,0 0,12.011718 3.544922,0 z" /><path
         inkscape:connector-curvature="0"
         id="path3475"
         d="m 94.60997,0.73242187 q -3.076172,0 -5.537109,-0.61523437 -2.460938,-0.5859375 -4.335938,-1.6992187 -1.875,-1.1425782 -3.193359,-2.7539063 -1.31836,-1.640625 -2.109375,-3.6914063 -0.644531,-1.640625 -0.9375,-3.6328122 -0.263672,-1.992188 -0.263672,-4.453125 l 0,-23.085938 7.177734,0 0,22.441407 q 0,4.160156 0.996094,6.503906 1.113281,2.6074216 3.251953,3.7792966 2.138672,1.1425782 5.039063,1.1425782 2.90039,0 5.039062,-1.1425782 2.138677,-1.171875 3.251957,-3.7792966 0.99609,-2.34375 0.99609,-6.503906 l 0,-22.441407 7.17773,0 0,23.085938 q 0,2.460937 -0.29296,4.453125 -0.26368,1.9921872 -0.90821,3.6328122 -0.79101,2.0507813 -2.13867,3.6914063 -1.31836,1.6113281 -3.25195,2.7539063 -1.9043,1.1132812 -4.39453,1.6992187 -2.490238,0.61523437 -5.56641,0.61523437 z" /><path
         inkscape:connector-curvature="0"
         id="path3477"
         d="m 140.83542,-20.976562 q 4.21875,6.005859 6.85547,10.664062 l 0.17578,0 q -0.35156,-7.646484 -0.35156,-11.132812 l 0,-17.753907 7.17773,0 0,39.199219 -7.5293,0 -12.77343,-18.046875 q -3.36914,-4.6875 -6.97266,-10.869141 l -0.17578,0 q 0.35156,7.207032 0.35156,11.16211 l 0,17.753906 -7.17773,0 0,-39.199219 7.52929,0 12.89063,18.222657 z" /><path
         inkscape:connector-curvature="0"
         id="path3479"
         d="m 171.24924,-6.0058594 19.27734,0 0,6.0058594 -26.45508,0 0,-39.199219 25.40039,0 0,6.00586 -18.22265,0 0,10.136718 15.64453,0 0,6.00586 -15.64453,0 0,11.0449216 z" /><path
         inkscape:connector-curvature="0"
         id="path3481"
         d="m 227.13141,-27.421875 q 0,4.101563 -2.28516,6.972656 -2.25586,2.841797 -7.00195,4.21875 l 0,0.117188 L 229.50446,0 l -8.61329,0 -10.66406,-15.175781 -4.92187,0 0,15.175781 -7.17774,0 0,-39.199219 11.92383,0 q 2.95898,0 5.50781,0.351563 2.54883,0.322265 4.36524,0.996094 3.45703,1.318359 5.33203,3.925781 1.875,2.578125 1.875,6.503906 z m -18.28125,6.240234 q 2.46094,0 4.16015,-0.205078 1.72852,-0.234375 2.9004,-0.673828 2.16796,-0.820312 2.98828,-2.226562 0.84961,-1.435547 0.84961,-3.28125 0,-1.582032 -0.67383,-2.783203 -0.64453,-1.230469 -2.22656,-1.933594 -1.0254,-0.46875 -2.57813,-0.673828 -1.55273,-0.234375 -3.83789,-0.234375 l -5.12695,0 0,12.011718 3.54492,0 z" /><path
         inkscape:connector-curvature="0"
         id="path3483"
         d="m 255.06084,-11.25 q 0,-1.494141 -0.73243,-2.402344 -0.73242,-0.9375 -1.99218,-1.523437 -1.25977,-0.585938 -2.8418,-0.9375 -1.55273,-0.38086 -3.28125,-0.732422 -2.28516,-0.498047 -4.36523,-1.171875 -2.08008,-0.703125 -3.66211,-1.904297 -1.58203,-1.230469 -2.51953,-3.105469 -0.9375,-1.875 -0.9375,-4.6875 0,-3.105468 1.08398,-5.390625 1.08398,-2.314453 2.92969,-3.808593 1.875,-1.523438 4.36523,-2.25586 2.51953,-0.761719 5.6543,-0.761719 3.13476,0 6.29883,0.615235 3.16406,0.615234 5.44922,1.582031 l 0,6.152344 q -3.04688,-1.201172 -5.85938,-1.728516 -2.7832,-0.55664 -5.24414,-0.55664 -3.54492,0 -5.47852,1.289062 -1.90429,1.289063 -1.90429,3.867188 0,1.49414 0.61523,2.460937 0.64453,0.966797 1.72852,1.611328 1.08398,0.615235 2.49023,0.996094 1.40625,0.380859 2.98828,0.703125 2.49024,0.527344 4.7461,1.230469 2.28515,0.673828 4.04297,1.904297 1.75781,1.230468 2.7832,3.222656 1.02539,1.96289 1.02539,5.039062 0,3.1640627 -1.17188,5.4785159 Q 260.0999,-3.75 257.93193,-2.2265625 255.79326,-0.73242187 252.71709,0 q -3.07618,0.73242187 -6.73828,0.73242187 -3.19336,0 -6.29883,-0.64453125 -3.07617,-0.61523437 -5.12696,-1.75781252 l 0,-6.0644531 q 2.90039,1.2597656 5.6543,1.8457031 2.75391,0.5566407 5.68359,0.5566407 1.69922,0 3.33985,-0.2636719 1.64062,-0.2929688 2.92969,-0.9667969 1.31836,-0.6738281 2.10937,-1.8164063 0.79102,-1.171875 0.79102,-2.8710937 z" /></g><path
       inkscape:connector-curvature="0"
       id="path3436"
       style="fill:none;stroke:#aa5b02;stroke-width:2.99990988;stroke-linecap:butt;stroke-linejoin:round;stroke-miterlimit:10;stroke-dasharray:none;stroke-opacity:1"
       d="m 231.2886,293.05216 257.756,-9e-5"
       inkscape:export-xdpi="179.89"
       inkscape:export-ydpi="179.89" /><path
       inkscape:connector-curvature="0"
       id="path3440"
       style="fill:none;stroke:#aa5b02;stroke-width:2.99999928;stroke-linecap:butt;stroke-linejoin:round;stroke-miterlimit:10;stroke-dasharray:none;stroke-opacity:1"
       d="m 231.2886,340.005 257.756,-9e-5"
       inkscape:export-xdpi="179.89"
       inkscape:export-ydpi="179.89" /></g></svg>