<?xml version="1.0" encoding="UTF-8" standalone="no"?>
<!-- Created with Inkscape (http://www.inkscape.org/) -->

<svg
   xmlns:dc="http://purl.org/dc/elements/1.1/"
   xmlns:cc="http://creativecommons.org/ns#"
   xmlns:rdf="http://www.w3.org/1999/02/22-rdf-syntax-ns#"
   xmlns:svg="http://www.w3.org/2000/svg"
   xmlns="http://www.w3.org/2000/svg"
   xmlns:sodipodi="http://sodipodi.sourceforge.net/DTD/sodipodi-0.dtd"
   xmlns:inkscape="http://www.inkscape.org/namespaces/inkscape"
   id="svg2"
   version="1.1"
   inkscape:version="0.91 r13725"
   xml:space="preserve"
   width="399"
   height="398.95499"
   viewBox="0 0 399 398.95499"
   sodipodi:docname="pruner_logo.svg"
   inkscape:export-filename="/Users/simone/Desktop/Pruner Logo/pruner_logo.png"
   inkscape:export-xdpi="90"
   inkscape:export-ydpi="90"><metadata
     id="metadata8"><rdf:RDF><cc:Work
         rdf:about=""><dc:format>image/svg+xml</dc:format><dc:type
           rdf:resource="http://purl.org/dc/dcmitype/StillImage" /><dc:title></dc:title></cc:Work></rdf:RDF></metadata><defs
     id="defs6"><clipPath
       id="clipPath4122"
       clipPathUnits="userSpaceOnUse"><path
         inkscape:connector-curvature="0"
         id="path4124"
         d="M 0,0 79,0 79,72 0,72 0,0 Z" /></clipPath><clipPath
       id="clipPath4132"
       clipPathUnits="userSpaceOnUse"><path
         inkscape:connector-curvature="0"
         id="path4134"
         d="m 0,72 78.168,0 0,-71.578 L 0,0.422 0,72 Z" /></clipPath><clipPath
       id="clipPath4142"
       clipPathUnits="userSpaceOnUse"><path
         inkscape:connector-curvature="0"
         id="path4144"
         d="M 0,0 78,0 78,72 0,72 0,0 Z" /></clipPath><clipPath
       id="clipPath4158"
       clipPathUnits="userSpaceOnUse"><path
         inkscape:connector-curvature="0"
         id="path4160"
         d="M 88,0 288,0 288,72 88,72 88,0 Z" /></clipPath><clipPath
       id="clipPath4168"
       clipPathUnits="userSpaceOnUse"><path
         inkscape:connector-curvature="0"
         id="path4170"
         d="m 88.059,72 199.188,0 0,-71.578 -199.188,0 0,71.578 z" /></clipPath><clipPath
       id="clipPath4178"
       clipPathUnits="userSpaceOnUse"><path
         inkscape:connector-curvature="0"
         id="path4180"
         d="M 88,0 288,0 288,72 88,72 88,0 Z" /></clipPath></defs><sodipodi:namedview
     pagecolor="#ffffff"
     bordercolor="#666666"
     borderopacity="1"
     objecttolerance="10"
     gridtolerance="10"
     guidetolerance="10"
     inkscape:pageopacity="0"
     inkscape:pageshadow="2"
     inkscape:window-width="1920"
     inkscape:window-height="1064"
     id="namedview4"
     showgrid="false"
     inkscape:zoom="2.3"
     inkscape:cx="58.825199"
     inkscape:cy="167.29825"
     inkscape:window-x="0"
     inkscape:window-y="0"
     inkscape:window-maximized="0"
     inkscape:current-layer="g10"
     fit-margin-left="20"
     fit-margin-right="20"
     fit-margin-top="20"
     fit-margin-bottom="20" /><g
     id="g10"
     inkscape:groupmode="layer"
     inkscape:label="rwthaachen_logo"
     transform="matrix(1.25,0,0,-1.25,20,378.95749)"><g
       id="g4393"><g
         transform="matrix(1.0013388,0,0,1.0013388,0,-2.6776749e-6)"
         id="g12"><path
           inkscape:connector-curvature="0"
           id="path14"
           style="fill:#00549f;fill-opacity:1;fill-rule:evenodd;stroke:none"
           d="m 12.141,40.349 -12.141,0 0,36.496 19.91,0 c 5.399,0.004 10.055,-3.492 11.574,-8.128 1.411,-4.29 0.207,-8.957 -2.968,-12.278 0.422,-1.144 0.832,-2.039 1.226,-3.066 0.879,-2.031 1.688,-4.063 2.567,-6.071 l 2.89,-6.953 -12.312,0 c 0,-0.004 -0.098,0.297 -0.196,0.418 -0.488,1.078 -0.929,2.227 -1.421,3.305 l -2.961,7.023 c -1.172,2.84 -2.348,5.524 -3.524,8.364 1.469,0.039 2.563,-0.235 3.981,0.414 0.992,0.492 2.5,1.707 2.539,4.039 -0.039,1.156 -0.36,2.031 -1.125,2.941 -0.766,0.848 -1.875,1.473 -3.321,1.492 0,0 -4.718,0.004 -4.714,0 l 0,-27.996 -0.004,0 z m 121.019,36.493 -6.336,0 0,-13.168 -8.5,0 0,13.168 -49.125,0 0,-16.403 c 0.098,-0.758 0.27,-1.515 0.344,-2.301 l -3.281,7.469 c -1.469,3.426 -2.864,6.852 -4.332,10.305 -0.125,0.316 -0.211,0.531 -0.368,0.93 l -12.535,0 c 0,-1.79 0.028,-3.77 0,-5.508 l 0,-10.895 c 0.125,-0.683 0.344,-1.59 0.442,-2.301 l -0.071,0.149 c -2.695,6.144 -5.289,12.312 -7.859,18.555 l -12.504,0 c 0.246,-0.735 0.637,-1.395 0.883,-2.129 l 2.762,-6.469 1.925,-4.527 0.125,-0.278 c 0.883,-2.109 1.586,-3.765 2.446,-5.793 2.48,-5.863 4.867,-11.523 7.351,-17.301 l 12.532,0 0,19.094 c 0.316,-1.078 0.562,-2.179 0.808,-3.281 2.129,-5.238 4.43,-10.551 6.61,-15.813 l 12.507,0 0,28.051 8.563,0 0,-28.051 12.144,0 0,28.051 8.493,0 0,-28.051 5.359,0 c 2.203,0.024 4.582,0 6.781,0 l 0,14.883 8.5,0 0,-14.883 12.145,0 0,36.497 -5.809,0 z" /><path
           inkscape:connector-curvature="0"
           id="path16"
           style="fill:#8ebae5;fill-opacity:1;fill-rule:evenodd;stroke:none"
           d="m 182.117,76.662 -9.055,0 -7.582,-28.645 -7.582,28.645 -9.058,0 -9.617,-36.336 7.632,0 1.68,7.684 9.668,0 1.68,-7.684 11.195,0 1.676,7.684 9.672,0 1.679,-7.684 7.633,0 -9.621,36.336 z m -32.308,-22.649 3.511,16.336 0.102,0 3.508,-16.336 -7.121,0 z m 24.218,0 3.512,16.336 0.102,0 3.511,-16.336 -7.125,0 z m 32.211,10.383 c 0,5.293 -1.07,7.582 -4.379,7.582 -3.714,0 -4.582,-3.715 -4.582,-13.992 0,-10.992 1.528,-12.976 4.684,-12.976 2.648,0 4.578,1.371 4.578,9.21 l 7.332,0 c 0,-7.839 -1.937,-14.605 -11.551,-14.605 -10.992,0 -12.367,7.836 -12.367,18.879 0,11.043 1.375,18.879 12.367,18.879 10.481,0 11.242,-7.684 11.242,-12.977 l -7.324,0 z m 8.746,12.262 7.325,0 0,-13.891 8.55,0 0,13.891 7.329,0 0,-36.332 -7.329,0 0,16.133 -8.55,0 0,-16.133 -7.325,0 0,36.332 z m 45.539,0.004 0,-6.008 -12.976,0 0,-8.547 12.215,0 0,-6.004 -12.215,0 0,-9.769 13.488,0 0,-6.008 -20.816,0 0,36.336 20.304,0 z m 10.59,0 8.852,-24.887 0.101,0 0,24.887 6.719,0 0,-36.336 -8.347,0 -8.954,25.445 -0.105,0 0,-25.445 -6.715,0 0,36.336 8.449,0 z" /><path
           inkscape:connector-curvature="0"
           id="path18"
           style="fill:#8ebae5;fill-opacity:1;fill-rule:evenodd;stroke:none"
           d="m 191.875,31.65 3.461,0 c 3.309,0 5.086,-1.676 5.086,-5.035 0,-3.918 -1.981,-5.445 -5.496,-5.445 l -3.051,0 0,10.48 z m -7.328,-30.937 7.328,0 0,15.367 3.918,0 c 2.949,0 4.223,-1.731 4.328,-4.578 l 0.199,-6.973 c 0.051,-1.426 0.203,-2.797 0.918,-3.816 l 7.938,0 0,0.304 c -1.375,0.715 -1.578,2.7 -1.629,6.516 -0.102,7.684 -0.863,10.43 -5.852,11.094 l 0,0.101 c 4.121,0.867 6.055,4.121 6.055,8.957 0,6.207 -3.664,9.36 -9.668,9.36 l -13.535,0 0,-36.332 z m -107.813,36.332 0,-25.34 c 0,-9.719 5.653,-11.703 11.606,-11.703 5.953,0 11.601,2.441 11.601,11.703 l 0,25.34 -7.328,0 0,-25.34 c 0,-3.613 -0.867,-6.309 -4.273,-6.309 -3.41,0 -4.278,2.696 -4.278,6.309 l 0,25.34 -7.328,0 z m 24.778,0 0,-36.332 6.715,0 0,25.445 0.101,0 8.957,-25.445 8.348,0 0,36.332 -6.719,0 0,-24.883 -0.102,0 -8.851,24.883 -8.449,0 z m 33.332,0 -7.328,0 0,-36.332 7.328,0 0,36.332 z m 0.504,0 8.343,-36.332 9.414,0 8.348,36.332 -7.582,0 -5.398,-26.868 -0.149,0 -5.14,26.868 -7.836,0 z m 26.754,0 0,-36.332 20.816,0 0,6.004 -13.488,0 0,9.769 12.215,0 0,6.008 -12.215,0 0,8.547 12.98,0 0,6.004 -20.308,0 z m 46.257,-24.985 0,-1.476 c 0,-6.715 3.258,-10.582 11.551,-10.582 7.942,0 12.621,3.461 12.621,11.144 0,4.426 -1.426,7.223 -6.922,9.617 l -5.648,2.442 c -3.106,1.324 -3.766,2.695 -3.766,4.933 0,2.141 0.867,4.227 4.176,4.227 2.797,0 3.965,-1.988 3.965,-5.395 l 7.023,0 0,1.016 c 0,6.973 -4.73,9.774 -11.246,9.774 -6.918,0 -11.246,-3.618 -11.246,-10.688 0,-6.055 3.004,-8.754 9.516,-10.992 4.836,-1.68 6.515,-2.899 6.515,-6.207 0,-3.055 -2.136,-4.481 -4.375,-4.481 -3.867,0 -4.835,2.188 -4.835,5.602 l 0,1.066 -7.329,0 z m 32.457,24.985 -7.328,0 0,-36.332 7.328,0 0,36.332 z m 38.059,0 -5.086,-14.043 -0.101,0 -4.786,14.043 -27.125,0 0,-6.004 7.942,0 0,-30.328 7.324,0 0,30.328 6.184,0 6.847,-16.028 0,-14.3 7.328,0 0,14.3 9.414,22.032 -7.941,0 z" /></g><g
         id="g3957"
         inkscape:label="llnl_logo"
         transform="translate(0,119.52699)"><g
           id="g3959"><path
             d="m 51.922,47.198 4.89,0 0,-15.266 8.579,0 0,-3.687 -13.469,0 0,18.953 z"
             style="fill:#1e59ae;fill-opacity:1;fill-rule:nonzero;stroke:none"
             id="path3961"
             inkscape:connector-curvature="0" /><path
             d="m 72.969,34.651 c -0.949,0 -1.664,-0.164 -2.141,-0.485 -0.48,-0.324 -0.719,-0.796 -0.719,-1.421 0,-0.586 0.192,-1.04 0.579,-1.36 0.382,-0.324 0.921,-0.484 1.609,-0.484 0.851,0 1.57,0.304 2.156,0.922 0.582,0.613 0.875,1.379 0.875,2.297 l 0,0.531 -2.359,0 z m 6.937,1.703 0,-8.109 -4.578,0 0,2.109 c -0.617,-0.867 -1.305,-1.496 -2.062,-1.891 -0.762,-0.394 -1.688,-0.593 -2.782,-0.593 -1.468,0 -2.664,0.425 -3.578,1.281 -0.918,0.863 -1.375,1.984 -1.375,3.359 0,1.664 0.571,2.891 1.719,3.672 1.145,0.781 2.941,1.172 5.391,1.172 l 2.687,0 0,0.344 c 0,0.718 -0.289,1.242 -0.859,1.578 -0.563,0.344 -1.446,0.515 -2.641,0.515 -0.98,0 -1.89,-0.101 -2.734,-0.296 -0.836,-0.2 -1.61,-0.493 -2.328,-0.875 l 0,3.468 c 0.976,0.227 1.957,0.407 2.937,0.532 0.977,0.125 1.957,0.187 2.938,0.187 2.57,0 4.425,-0.508 5.562,-1.516 1.133,-1.011 1.703,-2.656 1.703,-4.937 z"
             style="fill:#1e59ae;fill-opacity:1;fill-rule:nonzero;stroke:none"
             id="path3963"
             inkscape:connector-curvature="0" /><path
             d="m 78.781,42.463 4.407,0 2.39,-9.797 2.406,9.797 3.797,0 2.375,-9.703 2.406,9.703 4.422,0 -3.75,-14.218 -4.968,0 -2.391,9.781 -2.391,-9.781 -4.968,0 -3.735,14.218 z"
             style="fill:#1e59ae;fill-opacity:1;fill-rule:nonzero;stroke:none"
             id="path3965"
             inkscape:connector-curvature="0" /><path
             d="m 109.879,38.588 c -0.399,0.188 -0.793,0.321 -1.188,0.407 -0.398,0.093 -0.793,0.14 -1.187,0.14 -1.168,0 -2.07,-0.375 -2.703,-1.125 -0.625,-0.75 -0.938,-1.824 -0.938,-3.219 l 0,-6.546 -4.547,0 0,14.218 4.547,0 0,-2.328 c 0.582,0.926 1.25,1.602 2,2.031 0.758,0.426 1.672,0.641 2.735,0.641 0.144,0 0.304,-0.008 0.484,-0.016 0.176,-0.011 0.438,-0.043 0.781,-0.093 l 0.016,-4.11 z"
             style="fill:#1e59ae;fill-opacity:1;fill-rule:nonzero;stroke:none"
             id="path3967"
             inkscape:connector-curvature="0" /><path
             d="m 122.562,35.385 0,-1.281 -10.624,0 c 0.113,-1.074 0.5,-1.875 1.156,-2.406 0.656,-0.532 1.578,-0.797 2.765,-0.797 0.957,0 1.938,0.14 2.938,0.422 1.008,0.281 2.039,0.711 3.094,1.297 l 0,-3.516 c -1.075,-0.406 -2.149,-0.715 -3.219,-0.922 -1.074,-0.207 -2.152,-0.312 -3.234,-0.312 -2.575,0 -4.575,0.656 -6,1.968 -1.418,1.313 -2.126,3.145 -2.126,5.5 0,2.321 0.696,4.145 2.094,5.469 1.395,1.332 3.321,2 5.782,2 2.238,0 4.023,-0.672 5.359,-2.016 1.344,-1.343 2.015,-3.148 2.015,-5.406 z m -4.671,1.516 c 0,0.863 -0.258,1.562 -0.766,2.094 -0.5,0.531 -1.156,0.796 -1.969,0.796 -0.875,0 -1.59,-0.25 -2.14,-0.75 -0.555,-0.492 -0.899,-1.203 -1.032,-2.14 l 5.907,0 z"
             style="fill:#1e59ae;fill-opacity:1;fill-rule:nonzero;stroke:none"
             id="path3969"
             inkscape:connector-curvature="0" /><path
             d="m 136.125,36.901 0,-8.656 -4.578,0 0,6.625 c 0,1.226 -0.027,2.07 -0.078,2.531 -0.055,0.469 -0.149,0.812 -0.281,1.031 -0.18,0.301 -0.422,0.535 -0.735,0.703 -0.305,0.164 -0.648,0.25 -1.031,0.25 -0.949,0 -1.695,-0.371 -2.234,-1.109 -0.543,-0.731 -0.813,-1.742 -0.813,-3.031 l 0,-7 -4.547,0 0,14.218 4.547,0 0,-2.078 c 0.676,0.82 1.398,1.43 2.172,1.828 0.769,0.395 1.625,0.594 2.562,0.594 1.633,0 2.879,-0.508 3.735,-1.516 0.851,-1 1.281,-2.464 1.281,-4.39 z"
             style="fill:#1e59ae;fill-opacity:1;fill-rule:nonzero;stroke:none"
             id="path3971"
             inkscape:connector-curvature="0" /><path
             d="m 148.184,42.026 0,-3.719 c -0.618,0.426 -1.235,0.738 -1.86,0.938 -0.625,0.207 -1.273,0.312 -1.937,0.312 -1.274,0 -2.262,-0.371 -2.969,-1.109 -0.699,-0.743 -1.047,-1.778 -1.047,-3.11 0,-1.324 0.348,-2.359 1.047,-3.109 0.707,-0.742 1.695,-1.109 2.969,-1.109 0.707,0 1.379,0.101 2.015,0.312 0.645,0.219 1.239,0.535 1.782,0.953 l 0,-3.719 c -0.711,-0.261 -1.434,-0.457 -2.172,-0.593 -0.731,-0.133 -1.461,-0.203 -2.188,-0.203 -2.574,0 -4.586,0.656 -6.031,1.968 -1.438,1.321 -2.156,3.157 -2.156,5.5 0,2.344 0.718,4.172 2.156,5.485 1.445,1.32 3.457,1.984 6.031,1.984 0.738,0 1.469,-0.07 2.188,-0.203 0.726,-0.125 1.453,-0.32 2.172,-0.578 z"
             style="fill:#1e59ae;fill-opacity:1;fill-rule:nonzero;stroke:none"
             id="path3973"
             inkscape:connector-curvature="0" /><path
             d="m 164.34,35.385 0,-1.281 -10.625,0 c 0.113,-1.074 0.5,-1.875 1.156,-2.406 0.656,-0.532 1.578,-0.797 2.766,-0.797 0.957,0 1.937,0.14 2.937,0.422 1.008,0.281 2.039,0.711 3.094,1.297 l 0,-3.516 c -1.074,-0.406 -2.148,-0.715 -3.219,-0.922 -1.074,-0.207 -2.152,-0.312 -3.234,-0.312 -2.574,0 -4.574,0.656 -6,1.968 -1.418,1.313 -2.125,3.145 -2.125,5.5 0,2.321 0.695,4.145 2.094,5.469 1.394,1.332 3.32,2 5.781,2 2.238,0 4.023,-0.672 5.359,-2.016 1.344,-1.343 2.016,-3.148 2.016,-5.406 z m -4.672,1.516 c 0,0.863 -0.258,1.562 -0.766,2.094 -0.5,0.531 -1.156,0.796 -1.968,0.796 -0.875,0 -1.59,-0.25 -2.141,-0.75 -0.555,-0.492 -0.898,-1.203 -1.031,-2.14 l 5.906,0 z"
             style="fill:#1e59ae;fill-opacity:1;fill-rule:nonzero;stroke:none"
             id="path3975"
             inkscape:connector-curvature="0" /><path
             d="m 169.941,47.198 4.891,0 0,-15.266 8.578,0 0,-3.687 -13.469,0 0,18.953 z"
             style="fill:#1e59ae;fill-opacity:1;fill-rule:nonzero;stroke:none"
             id="path3977"
             inkscape:connector-curvature="0" /><path
             d="m 184.613,42.463 4.547,0 0,-14.218 -4.547,0 0,14.218 z m 0,5.532 4.547,0 0,-3.704 -4.547,0 0,3.704 z"
             style="fill:#1e59ae;fill-opacity:1;fill-rule:nonzero;stroke:none"
             id="path3979"
             inkscape:connector-curvature="0" /><path
             d="m 188.926,42.463 4.547,0 3.547,-9.828 3.531,9.828 4.547,0 -5.594,-14.218 -4.984,0 -5.594,14.218 z"
             style="fill:#1e59ae;fill-opacity:1;fill-rule:nonzero;stroke:none"
             id="path3981"
             inkscape:connector-curvature="0" /><path
             d="m 218.359,35.385 0,-1.281 -10.625,0 c 0.114,-1.074 0.5,-1.875 1.157,-2.406 0.656,-0.532 1.578,-0.797 2.765,-0.797 0.957,0 1.938,0.14 2.938,0.422 1.008,0.281 2.039,0.711 3.094,1.297 l 0,-3.516 c -1.075,-0.406 -2.149,-0.715 -3.219,-0.922 -1.074,-0.207 -2.153,-0.312 -3.235,-0.312 -2.574,0 -4.574,0.656 -6,1.968 -1.418,1.313 -2.125,3.145 -2.125,5.5 0,2.321 0.696,4.145 2.094,5.469 1.395,1.332 3.32,2 5.781,2 2.239,0 4.024,-0.672 5.36,-2.016 1.344,-1.343 2.015,-3.148 2.015,-5.406 z m -4.671,1.516 c 0,0.863 -0.258,1.562 -0.766,2.094 -0.5,0.531 -1.156,0.796 -1.969,0.796 -0.875,0 -1.59,-0.25 -2.141,-0.75 -0.554,-0.492 -0.898,-1.203 -1.031,-2.14 l 5.907,0 z"
             style="fill:#1e59ae;fill-opacity:1;fill-rule:nonzero;stroke:none"
             id="path3983"
             inkscape:connector-curvature="0" /><path
             d="m 228.188,38.588 c -0.399,0.188 -0.793,0.321 -1.188,0.407 -0.398,0.093 -0.793,0.14 -1.188,0.14 -1.167,0 -2.07,-0.375 -2.703,-1.125 -0.625,-0.75 -0.937,-1.824 -0.937,-3.219 l 0,-6.546 -4.547,0 0,14.218 4.547,0 0,-2.328 c 0.582,0.926 1.25,1.602 2,2.031 0.758,0.426 1.672,0.641 2.734,0.641 0.145,0 0.305,-0.008 0.485,-0.016 0.175,-0.011 0.437,-0.043 0.781,-0.093 l 0.016,-4.11 z"
             style="fill:#1e59ae;fill-opacity:1;fill-rule:nonzero;stroke:none"
             id="path3985"
             inkscape:connector-curvature="0" /><path
             d="m 239.855,40.104 c 0.571,0.875 1.254,1.539 2.047,2 0.789,0.469 1.66,0.703 2.61,0.703 1.633,0 2.879,-0.508 3.734,-1.516 0.852,-1 1.281,-2.464 1.281,-4.39 l 0,-8.656 -4.562,0 0,7.421 c 0.008,0.102 0.015,0.211 0.015,0.329 0,0.125 0,0.296 0,0.515 0,1.008 -0.148,1.738 -0.437,2.188 -0.293,0.457 -0.773,0.687 -1.438,0.687 -0.867,0 -1.531,-0.359 -2,-1.078 -0.468,-0.711 -0.714,-1.734 -0.734,-3.078 l 0,-6.984 -4.562,0 0,7.421 c 0,1.571 -0.137,2.582 -0.407,3.032 -0.273,0.457 -0.757,0.687 -1.453,0.687 -0.867,0 -1.539,-0.359 -2.015,-1.078 -0.469,-0.719 -0.704,-1.742 -0.704,-3.062 l 0,-7 -4.578,0 0,14.218 4.578,0 0,-2.078 c 0.551,0.801 1.188,1.406 1.907,1.813 0.726,0.406 1.531,0.609 2.406,0.609 0.977,0 1.844,-0.242 2.594,-0.719 0.758,-0.468 1.332,-1.133 1.718,-1.984 z"
             style="fill:#1e59ae;fill-opacity:1;fill-rule:nonzero;stroke:none"
             id="path3987"
             inkscape:connector-curvature="0" /><path
             d="m 255.641,39.557 c -1.012,0 -1.782,-0.367 -2.313,-1.094 -0.523,-0.718 -0.781,-1.761 -0.781,-3.125 0,-1.367 0.258,-2.414 0.781,-3.14 0.531,-0.719 1.301,-1.078 2.313,-1.078 0.988,0 1.742,0.359 2.265,1.078 0.532,0.726 0.797,1.773 0.797,3.14 0,1.364 -0.265,2.407 -0.797,3.125 -0.523,0.727 -1.277,1.094 -2.265,1.094 z m 0,3.25 c 2.445,0 4.359,-0.664 5.734,-1.984 1.375,-1.325 2.063,-3.153 2.063,-5.485 0,-2.336 -0.688,-4.164 -2.063,-5.484 -1.375,-1.324 -3.289,-1.984 -5.734,-1.984 -2.461,0 -4.383,0.66 -5.766,1.984 -1.375,1.32 -2.063,3.148 -2.063,5.484 0,2.332 0.688,4.16 2.063,5.485 1.383,1.32 3.305,1.984 5.766,1.984 z"
             style="fill:#1e59ae;fill-opacity:1;fill-rule:nonzero;stroke:none"
             id="path3989"
             inkscape:connector-curvature="0" /><path
             d="m 274.34,38.588 c -0.399,0.188 -0.793,0.321 -1.188,0.407 -0.398,0.093 -0.793,0.14 -1.187,0.14 -1.168,0 -2.07,-0.375 -2.703,-1.125 -0.625,-0.75 -0.938,-1.824 -0.938,-3.219 l 0,-6.546 -4.547,0 0,14.218 4.547,0 0,-2.328 c 0.582,0.926 1.25,1.602 2,2.031 0.758,0.426 1.672,0.641 2.735,0.641 0.144,0 0.304,-0.008 0.484,-0.016 0.176,-0.011 0.437,-0.043 0.781,-0.093 l 0.016,-4.11 z"
             style="fill:#1e59ae;fill-opacity:1;fill-rule:nonzero;stroke:none"
             id="path3991"
             inkscape:connector-curvature="0" /><path
             d="m 286.992,35.385 0,-1.281 -10.625,0 c 0.113,-1.074 0.5,-1.875 1.156,-2.406 0.657,-0.532 1.579,-0.797 2.766,-0.797 0.957,0 1.938,0.14 2.938,0.422 1.007,0.281 2.039,0.711 3.093,1.297 l 0,-3.516 c -1.074,-0.406 -2.148,-0.715 -3.218,-0.922 -1.075,-0.207 -2.153,-0.312 -3.235,-0.312 -2.574,0 -4.574,0.656 -6,1.968 -1.418,1.313 -2.125,3.145 -2.125,5.5 0,2.321 0.696,4.145 2.094,5.469 1.394,1.332 3.32,2 5.781,2 2.238,0 4.024,-0.672 5.36,-2.016 1.343,-1.343 2.015,-3.148 2.015,-5.406 z m -4.672,1.516 c 0,0.863 -0.258,1.562 -0.765,2.094 -0.5,0.531 -1.157,0.796 -1.969,0.796 -0.875,0 -1.59,-0.25 -2.141,-0.75 -0.554,-0.492 -0.898,-1.203 -1.031,-2.14 l 5.906,0 z"
             style="fill:#1e59ae;fill-opacity:1;fill-rule:nonzero;stroke:none"
             id="path3993"
             inkscape:connector-curvature="0" /><path
             d="m 51.922,24.635 5.453,0 6.891,-13 0,13 4.64,0 0,-18.953 -5.453,0 -6.906,13 0,-13 -4.625,0 0,18.953 z"
             style="fill:#1e59ae;fill-opacity:1;fill-rule:nonzero;stroke:none"
             id="path3995"
             inkscape:connector-curvature="0" /><path
             d="m 75.918,12.088 c -0.949,0 -1.664,-0.164 -2.141,-0.484 -0.48,-0.324 -0.718,-0.797 -0.718,-1.422 0,-0.586 0.191,-1.039 0.578,-1.359 0.383,-0.325 0.922,-0.485 1.609,-0.485 0.852,0 1.57,0.305 2.156,0.922 0.582,0.613 0.875,1.379 0.875,2.297 l 0,0.531 -2.359,0 z m 6.937,1.703 0,-8.109 -4.578,0 0,2.109 C 77.66,6.924 76.973,6.295 76.215,5.901 75.453,5.506 74.527,5.307 73.434,5.307 c -1.469,0 -2.664,0.426 -3.579,1.281 -0.917,0.864 -1.375,1.985 -1.375,3.36 0,1.664 0.571,2.89 1.719,3.672 1.145,0.781 2.942,1.171 5.391,1.171 l 2.687,0 0,0.344 c 0,0.719 -0.289,1.242 -0.859,1.578 -0.563,0.344 -1.445,0.516 -2.641,0.516 -0.98,0 -1.89,-0.102 -2.734,-0.297 -0.836,-0.199 -1.609,-0.492 -2.328,-0.875 l 0,3.469 c 0.976,0.226 1.957,0.406 2.937,0.531 0.977,0.125 1.957,0.188 2.938,0.188 2.57,0 4.426,-0.508 5.562,-1.516 1.133,-1.012 1.703,-2.656 1.703,-4.938 z"
             style="fill:#1e59ae;fill-opacity:1;fill-rule:nonzero;stroke:none"
             id="path3997"
             inkscape:connector-curvature="0" /><path
             d="m 87.949,23.932 0,-4.031 4.688,0 0,-3.25 -4.688,0 0,-6.031 c 0,-0.657 0.129,-1.106 0.391,-1.344 0.269,-0.231 0.797,-0.344 1.578,-0.344 l 2.328,0 0,-3.25 -3.891,0 c -1.804,0 -3.078,0.375 -3.828,1.125 -0.742,0.75 -1.109,2.02 -1.109,3.813 l 0,6.031 -2.266,0 0,3.25 2.266,0 0,4.031 4.531,0 z"
             style="fill:#1e59ae;fill-opacity:1;fill-rule:nonzero;stroke:none"
             id="path3999"
             inkscape:connector-curvature="0" /><path
             d="m 90.578,19.901 4.547,0 0,-14.219 -4.547,0 0,14.219 z m 0,5.531 4.547,0 0,-3.703 -4.547,0 0,3.703 z"
             style="fill:#1e59ae;fill-opacity:1;fill-rule:nonzero;stroke:none"
             id="path4001"
             inkscape:connector-curvature="0" /><path
             d="m 103.449,16.995 c -1.011,0 -1.781,-0.368 -2.312,-1.094 -0.524,-0.719 -0.782,-1.762 -0.782,-3.125 0,-1.367 0.258,-2.414 0.782,-3.141 0.531,-0.719 1.301,-1.078 2.312,-1.078 0.989,0 1.742,0.359 2.266,1.078 0.531,0.727 0.797,1.774 0.797,3.141 0,1.363 -0.266,2.406 -0.797,3.125 -0.524,0.726 -1.277,1.094 -2.266,1.094 z m 0,3.25 c 2.446,0 4.36,-0.665 5.735,-1.985 1.375,-1.324 2.062,-3.152 2.062,-5.484 0,-2.336 -0.687,-4.164 -2.062,-5.485 -1.375,-1.324 -3.289,-1.984 -5.735,-1.984 -2.461,0 -4.383,0.66 -5.765,1.984 -1.375,1.321 -2.063,3.149 -2.063,5.485 0,2.332 0.688,4.16 2.063,5.484 1.382,1.32 3.304,1.985 5.765,1.985 z"
             style="fill:#1e59ae;fill-opacity:1;fill-rule:nonzero;stroke:none"
             id="path4003"
             inkscape:connector-curvature="0" /><path
             d="m 125.855,14.338 0,-8.656 -4.578,0 0,6.625 c 0,1.227 -0.027,2.07 -0.078,2.531 -0.054,0.469 -0.148,0.813 -0.281,1.032 -0.18,0.3 -0.422,0.535 -0.734,0.703 -0.305,0.164 -0.649,0.25 -1.032,0.25 -0.949,0 -1.695,-0.371 -2.234,-1.11 -0.543,-0.73 -0.813,-1.742 -0.813,-3.031 l 0,-7 -4.546,0 0,14.219 4.546,0 0,-2.078 c 0.676,0.82 1.399,1.429 2.172,1.828 0.77,0.394 1.625,0.594 2.563,0.594 1.633,0 2.879,-0.508 3.734,-1.516 0.852,-1 1.281,-2.465 1.281,-4.391 z"
             style="fill:#1e59ae;fill-opacity:1;fill-rule:nonzero;stroke:none"
             id="path4005"
             inkscape:connector-curvature="0" /><path
             d="m 132.809,12.088 c -0.95,0 -1.664,-0.164 -2.141,-0.484 -0.48,-0.324 -0.719,-0.797 -0.719,-1.422 0,-0.586 0.192,-1.039 0.578,-1.359 0.383,-0.325 0.922,-0.485 1.61,-0.485 0.851,0 1.57,0.305 2.156,0.922 0.582,0.613 0.875,1.379 0.875,2.297 l 0,0.531 -2.359,0 z m 6.937,1.703 0,-8.109 -4.578,0 0,2.109 c -0.617,-0.867 -1.305,-1.496 -2.063,-1.89 -0.761,-0.395 -1.687,-0.594 -2.781,-0.594 -1.469,0 -2.664,0.426 -3.578,1.281 -0.918,0.864 -1.375,1.985 -1.375,3.36 0,1.664 0.57,2.89 1.719,3.672 1.144,0.781 2.941,1.171 5.39,1.171 l 2.688,0 0,0.344 c 0,0.719 -0.289,1.242 -0.859,1.578 -0.563,0.344 -1.446,0.516 -2.641,0.516 -0.98,0 -1.891,-0.102 -2.734,-0.297 -0.836,-0.199 -1.61,-0.492 -2.329,-0.875 l 0,3.469 c 0.977,0.226 1.957,0.406 2.938,0.531 0.977,0.125 1.957,0.188 2.937,0.188 2.571,0 4.426,-0.508 5.563,-1.516 1.133,-1.012 1.703,-2.656 1.703,-4.938 z"
             style="fill:#1e59ae;fill-opacity:1;fill-rule:nonzero;stroke:none"
             id="path4007"
             inkscape:connector-curvature="0" /><path
             d="m 139.887,25.432 4.547,0 0,-19.75 -4.547,0 0,19.75 z"
             style="fill:#1e59ae;fill-opacity:1;fill-rule:nonzero;stroke:none"
             id="path4009"
             inkscape:connector-curvature="0" /><path
             d="m 152.332,24.635 4.891,0 0,-15.265 8.578,0 0,-3.688 -13.469,0 0,18.953 z"
             style="fill:#1e59ae;fill-opacity:1;fill-rule:nonzero;stroke:none"
             id="path4011"
             inkscape:connector-curvature="0" /><path
             d="m 173.375,12.088 c -0.949,0 -1.664,-0.164 -2.141,-0.484 -0.48,-0.324 -0.718,-0.797 -0.718,-1.422 0,-0.586 0.191,-1.039 0.578,-1.359 0.383,-0.325 0.922,-0.485 1.609,-0.485 0.852,0 1.57,0.305 2.156,0.922 0.582,0.613 0.875,1.379 0.875,2.297 l 0,0.531 -2.359,0 z m 6.937,1.703 0,-8.109 -4.578,0 0,2.109 c -0.617,-0.867 -1.304,-1.496 -2.062,-1.89 -0.762,-0.395 -1.688,-0.594 -2.781,-0.594 -1.469,0 -2.664,0.426 -3.579,1.281 -0.917,0.864 -1.374,1.985 -1.374,3.36 0,1.664 0.57,2.89 1.718,3.672 1.145,0.781 2.942,1.171 5.391,1.171 l 2.687,0 0,0.344 c 0,0.719 -0.289,1.242 -0.859,1.578 -0.563,0.344 -1.445,0.516 -2.641,0.516 -0.98,0 -1.89,-0.102 -2.734,-0.297 -0.836,-0.199 -1.609,-0.492 -2.328,-0.875 l 0,3.469 c 0.976,0.226 1.957,0.406 2.937,0.531 0.977,0.125 1.957,0.188 2.938,0.188 2.57,0 4.426,-0.508 5.562,-1.516 1.133,-1.012 1.703,-2.656 1.703,-4.938 z"
             style="fill:#1e59ae;fill-opacity:1;fill-rule:nonzero;stroke:none"
             id="path4013"
             inkscape:connector-curvature="0" /><path
             d="m 188.016,8.62 c 0.968,0 1.707,0.351 2.218,1.062 0.52,0.707 0.782,1.738 0.782,3.094 0,1.351 -0.262,2.383 -0.782,3.094 -0.511,0.718 -1.25,1.078 -2.218,1.078 -0.969,0 -1.715,-0.36 -2.235,-1.078 C 185.258,15.151 185,14.12 185,12.776 c 0,-1.344 0.258,-2.375 0.781,-3.094 0.52,-0.711 1.266,-1.062 2.235,-1.062 z M 185,17.823 c 0.625,0.82 1.316,1.429 2.078,1.828 0.758,0.394 1.633,0.594 2.625,0.594 1.75,0 3.188,-0.7 4.313,-2.094 1.125,-1.387 1.687,-3.18 1.687,-5.375 0,-2.188 -0.562,-3.981 -1.687,-5.375 -1.125,-1.399 -2.563,-2.094 -4.313,-2.094 -0.992,0 -1.867,0.199 -2.625,0.594 -0.762,0.394 -1.453,1.008 -2.078,1.844 l 0,-2.063 -4.547,0 0,19.75 4.547,0 0,-7.609 z"
             style="fill:#1e59ae;fill-opacity:1;fill-rule:nonzero;stroke:none"
             id="path4015"
             inkscape:connector-curvature="0" /><path
             d="m 202.094,16.995 c -1.012,0 -1.782,-0.368 -2.313,-1.094 C 199.258,15.182 199,14.139 199,12.776 c 0,-1.367 0.258,-2.414 0.781,-3.141 0.531,-0.719 1.301,-1.078 2.313,-1.078 0.988,0 1.742,0.359 2.265,1.078 0.532,0.727 0.797,1.774 0.797,3.141 0,1.363 -0.265,2.406 -0.797,3.125 -0.523,0.726 -1.277,1.094 -2.265,1.094 z m 0,3.25 c 2.445,0 4.359,-0.665 5.734,-1.985 1.375,-1.324 2.063,-3.152 2.063,-5.484 0,-2.336 -0.688,-4.164 -2.063,-5.485 -1.375,-1.324 -3.289,-1.984 -5.734,-1.984 -2.461,0 -4.383,0.66 -5.766,1.984 -1.375,1.321 -2.062,3.149 -2.062,5.485 0,2.332 0.687,4.16 2.062,5.484 1.383,1.32 3.305,1.985 5.766,1.985 z"
             style="fill:#1e59ae;fill-opacity:1;fill-rule:nonzero;stroke:none"
             id="path4017"
             inkscape:connector-curvature="0" /><path
             d="m 220.793,16.026 c -0.398,0.187 -0.793,0.32 -1.188,0.406 -0.398,0.094 -0.793,0.141 -1.187,0.141 -1.168,0 -2.07,-0.375 -2.703,-1.125 -0.625,-0.75 -0.938,-1.825 -0.938,-3.219 l 0,-6.547 -4.547,0 0,14.219 4.547,0 0,-2.328 c 0.582,0.925 1.25,1.601 2,2.031 0.758,0.426 1.672,0.641 2.735,0.641 0.144,0 0.304,-0.008 0.484,-0.016 0.176,-0.012 0.438,-0.043 0.781,-0.094 l 0.016,-4.109 z"
             style="fill:#1e59ae;fill-opacity:1;fill-rule:nonzero;stroke:none"
             id="path4019"
             inkscape:connector-curvature="0" /><path
             d="m 225.633,12.088 c -0.949,0 -1.664,-0.164 -2.141,-0.484 -0.48,-0.324 -0.719,-0.797 -0.719,-1.422 0,-0.586 0.192,-1.039 0.579,-1.359 0.382,-0.325 0.921,-0.485 1.609,-0.485 0.851,0 1.57,0.305 2.156,0.922 0.582,0.613 0.875,1.379 0.875,2.297 l 0,0.531 -2.359,0 z m 6.937,1.703 0,-8.109 -4.578,0 0,2.109 c -0.617,-0.867 -1.304,-1.496 -2.062,-1.89 -0.762,-0.395 -1.688,-0.594 -2.782,-0.594 -1.468,0 -2.664,0.426 -3.578,1.281 -0.918,0.864 -1.375,1.985 -1.375,3.36 0,1.664 0.571,2.89 1.719,3.672 1.145,0.781 2.941,1.171 5.391,1.171 l 2.687,0 0,0.344 c 0,0.719 -0.289,1.242 -0.859,1.578 -0.563,0.344 -1.445,0.516 -2.641,0.516 -0.98,0 -1.89,-0.102 -2.734,-0.297 -0.836,-0.199 -1.61,-0.492 -2.328,-0.875 l 0,3.469 c 0.976,0.226 1.957,0.406 2.937,0.531 0.977,0.125 1.957,0.188 2.938,0.188 2.57,0 4.425,-0.508 5.562,-1.516 1.133,-1.012 1.703,-2.656 1.703,-4.938 z"
             style="fill:#1e59ae;fill-opacity:1;fill-rule:nonzero;stroke:none"
             id="path4021"
             inkscape:connector-curvature="0" /><path
             d="m 237.664,23.932 0,-4.031 4.688,0 0,-3.25 -4.688,0 0,-6.031 c 0,-0.657 0.129,-1.106 0.391,-1.344 0.269,-0.231 0.797,-0.344 1.578,-0.344 l 2.328,0 0,-3.25 -3.891,0 c -1.804,0 -3.078,0.375 -3.828,1.125 -0.742,0.75 -1.109,2.02 -1.109,3.813 l 0,6.031 -2.266,0 0,3.25 2.266,0 0,4.031 4.531,0 z"
             style="fill:#1e59ae;fill-opacity:1;fill-rule:nonzero;stroke:none"
             id="path4023"
             inkscape:connector-curvature="0" /><path
             d="m 247.059,16.995 c -1.012,0 -1.782,-0.368 -2.313,-1.094 -0.523,-0.719 -0.781,-1.762 -0.781,-3.125 0,-1.367 0.258,-2.414 0.781,-3.141 0.531,-0.719 1.301,-1.078 2.313,-1.078 0.988,0 1.742,0.359 2.265,1.078 0.531,0.727 0.797,1.774 0.797,3.141 0,1.363 -0.266,2.406 -0.797,3.125 -0.523,0.726 -1.277,1.094 -2.265,1.094 z m 0,3.25 c 2.445,0 4.359,-0.665 5.734,-1.985 1.375,-1.324 2.062,-3.152 2.062,-5.484 0,-2.336 -0.687,-4.164 -2.062,-5.485 -1.375,-1.324 -3.289,-1.984 -5.734,-1.984 -2.461,0 -4.383,0.66 -5.766,1.984 -1.375,1.321 -2.063,3.149 -2.063,5.485 0,2.332 0.688,4.16 2.063,5.484 1.383,1.32 3.305,1.985 5.766,1.985 z"
             style="fill:#1e59ae;fill-opacity:1;fill-rule:nonzero;stroke:none"
             id="path4025"
             inkscape:connector-curvature="0" /><path
             d="m 265.73,16.026 c -0.398,0.187 -0.792,0.32 -1.187,0.406 -0.398,0.094 -0.793,0.141 -1.188,0.141 -1.167,0 -2.07,-0.375 -2.703,-1.125 -0.625,-0.75 -0.937,-1.825 -0.937,-3.219 l 0,-6.547 -4.547,0 0,14.219 4.547,0 0,-2.328 c 0.582,0.925 1.25,1.601 2,2.031 0.758,0.426 1.672,0.641 2.734,0.641 0.145,0 0.305,-0.008 0.485,-0.016 0.175,-0.012 0.437,-0.043 0.781,-0.094 l 0.015,-4.109 z"
             style="fill:#1e59ae;fill-opacity:1;fill-rule:nonzero;stroke:none"
             id="path4027"
             inkscape:connector-curvature="0" /><path
             d="m 262.348,19.901 4.547,0 3.828,-9.641 3.25,9.641 4.547,0 -5.985,-15.563 C 271.93,2.756 271.227,1.651 270.426,1.026 269.633,0.393 268.582,0.073 267.27,0.073 l -2.625,0 0,2.984 1.421,0 c 0.77,0 1.329,0.125 1.672,0.375 0.352,0.242 0.629,0.68 0.828,1.313 l 0.125,0.39 -6.343,14.766 z"
             style="fill:#1e59ae;fill-opacity:1;fill-rule:nonzero;stroke:none"
             id="path4029"
             inkscape:connector-curvature="0" /><path
             d="m 0,48.213 40.965,0 0,-42.543 L 0,5.67 0,48.213 Z"
             style="fill:#ffffff;fill-opacity:1;fill-rule:nonzero;stroke:none"
             id="path4031"
             inkscape:connector-curvature="0" /><path
             d="m 3.383,48.202 -3.356,0 0,-42.54 40.907,0 0,22.446 -17.055,-17.641 -7.617,0 C 11.047,10.651 3.609,14.639 3.383,24.116 l 0,24.086 z"
             style="fill:#1e59ae;fill-opacity:1;fill-rule:nonzero;stroke:none"
             id="path4033"
             inkscape:connector-curvature="0" /><path
             d="m 21.793,48.202 19.141,0 0,-19.141 -19.141,0 0,19.141 z"
             style="fill:#1e59ae;fill-opacity:1;fill-rule:nonzero;stroke:none"
             id="path4035"
             inkscape:connector-curvature="0" /><g
             id="g4037"
             transform="translate(0,48.244507)"><path
               d="m 9.188,-0.043 0,-23.492 c -0.094,-4.719 3.578,-7.938 7.39,-8.391 l 14.238,0 6.664,6.578 -19.316,0 c -1.492,0.086 -2.355,1.09 -2.449,2.356 l 0,22.949"
               style="fill:none;stroke:#1e59ae;stroke-width:1.08834696;stroke-linecap:butt;stroke-linejoin:miter;stroke-miterlimit:10;stroke-dasharray:none;stroke-opacity:1"
               id="path4039"
               inkscape:connector-curvature="0" /></g></g></g><g
         id="g4110"
         inkscape:label="uofu_logo"
         transform="translate(0,215.5989)"><g
           id="g4112" /><g
           id="g4114"><g
             id="g4116"
             transform="translate(0,-0.432907)"><g
               id="g4118"><g
                 id="g4120"
                 clip-path="url(#clipPath4122)"><g
                   id="g4126" /><g
                   id="g4128"><g
                     id="g4130"
                     clip-path="url(#clipPath4132)"><g
                       id="g4136"><g
                         id="g4138"><g
                           id="g4140"
                           clip-path="url(#clipPath4142)"><g
                             id="g4146"><path
                               d="m -0.098,71.68 0,-21.344 7.118,0 0,-35.488 14.234,-14.145 35.394,0 14.227,14.145 0,35.488 7.121,0 0,21.344 -35.492,0 0,-21.344 7.121,0 0,-28.285 -21.348,0 0,28.285 7.118,0 0,21.344 -35.493,0"
                               style="fill:#c4122e;fill-opacity:1;fill-rule:nonzero;stroke:none"
                               id="path4148"
                               inkscape:connector-curvature="0" /></g></g></g></g></g></g></g></g></g></g><g
           id="g4150"><g
             id="g4152"
             transform="translate(0,-0.432907)"><g
               id="g4154"><g
                 id="g4156"
                 clip-path="url(#clipPath4158)"><g
                   id="g4162" /><g
                   id="g4164"><g
                     id="g4166"
                     clip-path="url(#clipPath4168)"><g
                       id="g4172"><g
                         id="g4174"><g
                           id="g4176"
                           clip-path="url(#clipPath4178)"><g
                             id="g4182"><path
                               d="M 92.848,70.832 90.363,70.77 C 89.398,70.734 88.996,70.652 88.746,70.285 88.582,70.035 88.496,69.836 88.465,69.699 88.43,69.566 88.379,69.5 88.281,69.5 c -0.117,0 -0.148,0.086 -0.148,0.266 0,0.269 0.312,1.785 0.347,1.918 0.051,0.218 0.102,0.316 0.2,0.316 0.132,0 0.3,-0.164 0.718,-0.199 0.481,-0.051 1.114,-0.086 1.664,-0.086 l 6.598,0 c 1.067,0 1.469,0.168 1.602,0.168 0.113,0 0.133,-0.102 0.133,-0.348 0,-0.351 -0.051,-1.5 -0.051,-1.933 -0.016,-0.164 -0.047,-0.266 -0.149,-0.266 -0.133,0 -0.168,0.082 -0.183,0.332 l -0.016,0.184 c -0.035,0.433 -0.484,0.898 -1.969,0.933 l -2.097,0.047 0,-6.828 c 0,-1.535 0,-2.848 0.082,-3.566 0.05,-0.469 0.148,-0.833 0.648,-0.903 0.235,-0.031 0.602,-0.066 0.852,-0.066 0.183,0 0.265,-0.047 0.265,-0.133 0,-0.113 -0.132,-0.168 -0.316,-0.168 -1.098,0 -2.149,0.055 -2.617,0.055 -0.383,0 -1.43,-0.055 -2.098,-0.055 -0.219,0 -0.332,0.055 -0.332,0.168 0,0.086 0.066,0.133 0.266,0.133 0.25,0 0.449,0.035 0.601,0.066 0.332,0.07 0.434,0.434 0.481,0.918 0.086,0.703 0.086,2.016 0.086,3.551 l 0,6.828"
                               style="fill:#231f20;fill-opacity:1;fill-rule:nonzero;stroke:none"
                               id="path4184"
                               inkscape:connector-curvature="0" /><path
                               d="m 111.84,66.469 c 0.051,0 0.101,0.031 0.101,0.117 l 0,0.352 c 0,2.531 0,2.996 -0.035,3.527 -0.031,0.57 -0.168,0.836 -0.718,0.953 -0.129,0.035 -0.415,0.047 -0.649,0.047 -0.184,0 -0.281,0.035 -0.281,0.152 0,0.117 0.117,0.149 0.347,0.149 0.903,0 1.95,-0.051 2.403,-0.051 0.398,0 1.449,0.051 2.097,0.051 0.235,0 0.348,-0.032 0.348,-0.149 0,-0.117 -0.098,-0.152 -0.297,-0.152 -0.133,0 -0.281,-0.012 -0.484,-0.047 -0.449,-0.086 -0.582,-0.367 -0.617,-0.953 -0.032,-0.531 -0.032,-0.996 -0.032,-3.527 l 0,-2.934 c 0,-1.535 0,-2.848 0.082,-3.566 0.051,-0.469 0.149,-0.833 0.649,-0.903 0.234,-0.031 0.601,-0.066 0.851,-0.066 0.184,0 0.266,-0.047 0.266,-0.133 0,-0.113 -0.133,-0.168 -0.332,-0.168 -1.082,0 -2.133,0.055 -2.598,0.055 -0.386,0 -1.433,-0.055 -2.082,-0.055 -0.234,0 -0.351,0.055 -0.351,0.168 0,0.086 0.066,0.133 0.265,0.133 0.25,0 0.45,0.035 0.602,0.066 0.332,0.07 0.414,0.434 0.48,0.918 0.086,0.703 0.086,2.016 0.086,3.551 l 0,1.465 c 0,0.066 -0.05,0.101 -0.101,0.101 l -6.367,0 c -0.047,0 -0.098,-0.015 -0.098,-0.101 l 0,-1.465 c 0,-1.535 0,-2.848 0.082,-3.566 0.051,-0.469 0.152,-0.833 0.652,-0.903 0.235,-0.031 0.598,-0.066 0.848,-0.066 0.184,0 0.27,-0.047 0.27,-0.133 0,-0.113 -0.137,-0.168 -0.336,-0.168 -1.082,0 -2.133,0.055 -2.598,0.055 -0.383,0 -1.434,-0.055 -2.102,-0.055 -0.214,0 -0.332,0.055 -0.332,0.168 0,0.086 0.067,0.133 0.266,0.133 0.25,0 0.453,0.035 0.602,0.066 0.332,0.07 0.418,0.434 0.484,0.918 0.082,0.703 0.082,2.016 0.082,3.551 l 0,2.934 c 0,2.531 0,2.996 -0.035,3.527 -0.031,0.57 -0.164,0.836 -0.715,0.953 -0.133,0.035 -0.418,0.047 -0.652,0.047 -0.18,0 -0.282,0.035 -0.282,0.152 0,0.117 0.118,0.149 0.348,0.149 0.902,0 1.953,-0.051 2.402,-0.051 0.399,0 1.45,0.051 2.098,0.051 0.234,0 0.352,-0.032 0.352,-0.149 0,-0.117 -0.102,-0.152 -0.301,-0.152 -0.133,0 -0.285,-0.012 -0.485,-0.047 -0.449,-0.086 -0.582,-0.367 -0.617,-0.953 -0.031,-0.531 -0.031,-0.996 -0.031,-3.527 l 0,-0.352 c 0,-0.086 0.051,-0.117 0.098,-0.117 l 6.367,0"
                               style="fill:#231f20;fill-opacity:1;fill-rule:nonzero;stroke:none"
                               id="path4186"
                               inkscape:connector-curvature="0" /><path
                               d="m 120.32,66.938 c 0,2.531 0,2.996 -0.035,3.527 -0.031,0.57 -0.164,0.836 -0.715,0.953 -0.132,0.035 -0.418,0.047 -0.648,0.047 -0.184,0 -0.285,0.035 -0.285,0.152 0,0.117 0.117,0.149 0.367,0.149 0.883,0 1.934,-0.051 2.398,-0.051 0.536,0 3.848,0 4.164,0.019 0.321,0.032 0.586,0.067 0.719,0.102 0.082,0.016 0.184,0.066 0.266,0.066 0.086,0 0.101,-0.066 0.101,-0.152 0,-0.117 -0.082,-0.316 -0.132,-1.082 -0.016,-0.168 -0.051,-0.902 -0.086,-1.102 -0.016,-0.082 -0.047,-0.183 -0.164,-0.183 -0.118,0 -0.153,0.086 -0.153,0.234 0,0.117 -0.015,0.399 -0.097,0.602 -0.118,0.301 -0.286,0.5 -1.118,0.597 -0.285,0.036 -2.031,0.071 -2.367,0.071 -0.082,0 -0.117,-0.055 -0.117,-0.168 l 0,-4.219 c 0,-0.113 0.02,-0.184 0.117,-0.184 0.367,0 2.285,0 2.668,0.036 0.399,0.035 0.649,0.086 0.801,0.25 0.113,0.132 0.18,0.214 0.266,0.214 0.066,0 0.117,-0.031 0.117,-0.132 0,-0.098 -0.086,-0.368 -0.133,-1.215 -0.035,-0.332 -0.07,-1 -0.07,-1.117 0,-0.133 0,-0.317 -0.149,-0.317 -0.117,0 -0.148,0.067 -0.148,0.153 -0.016,0.164 -0.016,0.382 -0.067,0.597 -0.086,0.332 -0.316,0.582 -0.933,0.649 -0.317,0.035 -1.969,0.054 -2.367,0.054 -0.082,0 -0.102,-0.07 -0.102,-0.168 l 0,-1.316 c 0,-0.566 -0.016,-2.102 0,-2.586 0.035,-1.148 0.301,-1.398 2,-1.398 0.434,0 1.133,0 1.566,0.203 0.434,0.199 0.633,0.547 0.75,1.23 0.032,0.184 0.067,0.25 0.184,0.25 0.133,0 0.133,-0.133 0.133,-0.301 0,-0.382 -0.133,-1.515 -0.219,-1.847 -0.113,-0.434 -0.262,-0.434 -0.894,-0.434 -2.52,0 -3.633,0.102 -4.618,0.102 -0.382,0 -1.433,-0.055 -2.101,-0.055 -0.215,0 -0.332,0.055 -0.332,0.168 0,0.086 0.066,0.133 0.265,0.133 0.25,0 0.453,0.035 0.602,0.066 0.332,0.07 0.418,0.434 0.484,0.918 0.082,0.703 0.082,2.016 0.082,3.551 l 0,2.934"
                               style="fill:#231f20;fill-opacity:1;fill-rule:nonzero;stroke:none"
                               id="path4188"
                               inkscape:connector-curvature="0" /><path
                               d="m 91.23,42.922 c 0,4.328 0,5.109 -0.054,5.996 -0.059,0.945 -0.281,1.391 -1.196,1.582 -0.222,0.059 -0.695,0.086 -0.945,0.086 -0.109,0 -0.223,0.055 -0.223,0.168 0,0.164 0.141,0.219 0.446,0.219 1.25,0 2.941,-0.082 3.195,-0.082 0.246,0 1.914,0.082 2.746,0.082 0.305,0 0.446,-0.055 0.446,-0.219 0,-0.113 -0.11,-0.168 -0.223,-0.168 -0.195,0 -0.36,-0.027 -0.695,-0.086 -0.747,-0.109 -0.969,-0.609 -1.024,-1.582 -0.058,-0.887 -0.058,-1.668 -0.058,-5.996 l 0,-3.887 c 0,-4 0.89,-5.723 2.082,-6.863 1.363,-1.277 2.613,-1.527 4.195,-1.527 1.695,0 3.359,0.808 4.359,2 1.278,1.582 1.61,3.945 1.61,6.804 l 0,3.473 c 0,4.328 0,5.109 -0.055,5.996 -0.055,0.945 -0.277,1.391 -1.195,1.582 -0.223,0.059 -0.696,0.086 -0.942,0.086 -0.113,0 -0.222,0.055 -0.222,0.168 0,0.164 0.14,0.219 0.441,0.219 1.254,0 2.777,-0.082 2.945,-0.082 0.196,0 1.5,0.082 2.332,0.082 0.309,0 0.446,-0.055 0.446,-0.219 0,-0.113 -0.11,-0.168 -0.223,-0.168 -0.191,0 -0.359,0 -0.695,-0.086 -0.746,-0.137 -0.969,-0.609 -1.024,-1.582 -0.058,-0.887 -0.058,-1.668 -0.058,-5.996 l 0,-2.973 c 0,-3 -0.332,-6.332 -2.555,-8.304 -2,-1.774 -4.082,-2.055 -5.723,-2.055 -0.941,0 -3.746,0.113 -5.718,1.972 -1.36,1.305 -2.415,3.25 -2.415,7.305 l 0,4.055"
                               style="fill:#231f20;fill-opacity:1;fill-rule:nonzero;stroke:none"
                               id="path4190"
                               inkscape:connector-curvature="0" /><path
                               d="m 118.027,33.758 c 0.055,-2.278 0.332,-3 1.082,-3.223 0.528,-0.14 1.141,-0.168 1.387,-0.168 0.141,0 0.227,-0.055 0.227,-0.164 0,-0.168 -0.168,-0.223 -0.5,-0.223 -1.586,0 -2.696,0.082 -2.946,0.082 -0.25,0 -1.418,-0.082 -2.668,-0.082 -0.273,0 -0.441,0.028 -0.441,0.223 0,0.109 0.082,0.164 0.219,0.164 0.222,0 0.722,0.028 1.14,0.168 0.696,0.192 0.836,1 0.836,3.527 l 0.024,15.915 c 0,1.082 0.082,1.386 0.308,1.386 0.219,0 0.692,-0.609 0.969,-0.89 0.418,-0.469 4.555,-4.942 8.832,-9.524 2.75,-2.945 5.777,-6.332 6.664,-7.25 l -0.305,14.11 c -0.027,1.804 -0.222,2.418 -1.082,2.636 -0.5,0.114 -1.14,0.141 -1.359,0.141 -0.195,0 -0.223,0.082 -0.223,0.191 0,0.168 0.223,0.196 0.551,0.196 1.254,0 2.586,-0.082 2.891,-0.082 0.308,0 1.222,0.082 2.359,0.082 0.309,0 0.504,-0.028 0.504,-0.196 0,-0.109 -0.113,-0.191 -0.308,-0.191 -0.141,0 -0.333,0 -0.668,-0.086 -0.915,-0.191 -1.024,-0.805 -1.024,-2.469 l -0.055,-16.273 c 0,-1.832 -0.058,-1.973 -0.253,-1.973 -0.219,0 -0.555,0.309 -2.028,1.777 -0.305,0.278 -4.301,4.36 -7.246,7.528 -3.223,3.469 -6.359,6.969 -7.25,7.969 l 0.363,-13.301"
                               style="fill:#231f20;fill-opacity:1;fill-rule:nonzero;stroke:none"
                               id="path4192"
                               inkscape:connector-curvature="0" /><path
                               d="m 147.297,38.031 c 0,-2.664 0,-4.859 0.137,-6.023 0.086,-0.809 0.25,-1.418 1.082,-1.528 0.39,-0.054 1.004,-0.113 1.25,-0.113 0.168,0 0.222,-0.082 0.222,-0.164 0,-0.141 -0.14,-0.223 -0.441,-0.223 -1.531,0 -3.281,0.082 -3.418,0.082 -0.141,0 -1.887,-0.082 -2.723,-0.082 -0.304,0 -0.441,0.055 -0.441,0.223 0,0.082 0.055,0.164 0.219,0.164 0.254,0 0.586,0.059 0.836,0.113 0.554,0.11 0.691,0.719 0.804,1.528 0.141,1.164 0.141,3.359 0.141,6.023 l 0,4.891 c 0,4.328 0,5.109 -0.059,5.996 -0.054,0.945 -0.332,1.418 -0.941,1.555 -0.309,0.086 -0.668,0.113 -0.863,0.113 -0.11,0 -0.219,0.055 -0.219,0.168 0,0.164 0.137,0.219 0.441,0.219 0.918,0 2.664,-0.082 2.805,-0.082 0.137,0 1.887,0.082 2.723,0.082 0.304,0 0.441,-0.055 0.441,-0.219 0,-0.113 -0.109,-0.168 -0.219,-0.168 -0.195,0 -0.363,-0.027 -0.695,-0.086 -0.75,-0.137 -0.973,-0.609 -1.027,-1.582 -0.055,-0.887 -0.055,-1.668 -0.055,-5.996 l 0,-4.891"
                               style="fill:#231f20;fill-opacity:1;fill-rule:nonzero;stroke:none"
                               id="path4194"
                               inkscape:connector-curvature="0" /><path
                               d="m 164.594,33.367 c 1.613,3.723 5.336,13.41 5.945,15.41 0.141,0.418 0.25,0.809 0.25,1.059 0,0.223 -0.086,0.5 -0.363,0.637 -0.332,0.113 -0.75,0.113 -1.055,0.113 -0.164,0 -0.305,0.027 -0.305,0.168 0,0.164 0.168,0.219 0.61,0.219 1.113,0 2.39,-0.082 2.722,-0.082 0.168,0 1.36,0.082 2.168,0.082 0.301,0 0.469,-0.055 0.469,-0.196 0,-0.136 -0.109,-0.191 -0.332,-0.191 -0.191,0 -0.805,0 -1.332,-0.332 -0.363,-0.25 -0.777,-0.727 -1.527,-2.613 -0.305,-0.778 -1.696,-4.11 -3.114,-7.524 -1.691,-4.055 -2.941,-7.055 -3.578,-8.418 -0.781,-1.664 -0.89,-2.109 -1.168,-2.109 -0.332,0 -0.472,0.39 -1,1.722 l -6.8,17.024 c -0.614,1.555 -1.028,1.859 -2,2.137 -0.418,0.113 -0.891,0.113 -1.055,0.113 -0.168,0 -0.227,0.082 -0.227,0.191 0,0.168 0.282,0.196 0.723,0.196 1.336,0 2.918,-0.082 3.25,-0.082 0.277,0 1.527,0.082 2.582,0.082 0.5,0 0.75,-0.055 0.75,-0.196 0,-0.136 -0.082,-0.191 -0.277,-0.191 -0.305,0 -0.805,-0.027 -1.055,-0.141 -0.305,-0.136 -0.359,-0.359 -0.359,-0.554 0,-0.364 0.332,-1.223 0.746,-2.305 l 5.332,-14.219"
                               style="fill:#231f20;fill-opacity:1;fill-rule:nonzero;stroke:none"
                               id="path4196"
                               inkscape:connector-curvature="0" /><path
                               d="m 180.562,42.922 c 0,4.328 0,5.109 -0.054,5.996 -0.055,0.945 -0.278,1.391 -1.192,1.582 -0.226,0.059 -0.695,0.086 -0.945,0.086 -0.113,0 -0.223,0.055 -0.223,0.168 0,0.164 0.137,0.219 0.442,0.219 1.25,0 3,-0.082 3.14,-0.082 0.192,0 5.719,0 6.356,0.027 0.527,0.027 0.973,0.082 1.195,0.141 0.141,0.027 0.25,0.14 0.391,0.14 0.082,0 0.109,-0.113 0.109,-0.254 0,-0.191 -0.14,-0.527 -0.219,-1.304 -0.031,-0.278 -0.085,-1.5 -0.14,-1.832 -0.027,-0.141 -0.082,-0.305 -0.195,-0.305 -0.168,0 -0.223,0.137 -0.223,0.359 0,0.196 -0.027,0.664 -0.168,1 -0.191,0.446 -0.473,0.778 -1.969,0.946 -0.472,0.054 -3.5,0.082 -3.805,0.082 -0.109,0 -0.167,-0.082 -0.167,-0.278 l 0,-7.664 c 0,-0.195 0.027,-0.277 0.167,-0.277 0.36,0 3.778,0 4.415,0.055 0.668,0.054 1.054,0.109 1.304,0.39 0.196,0.219 0.305,0.36 0.418,0.36 0.082,0 0.141,-0.055 0.141,-0.223 0,-0.168 -0.141,-0.637 -0.227,-1.555 -0.054,-0.554 -0.109,-1.582 -0.109,-1.777 0,-0.223 0,-0.527 -0.195,-0.527 -0.137,0 -0.196,0.109 -0.196,0.25 0,0.277 0,0.554 -0.109,0.914 -0.109,0.39 -0.359,0.863 -1.442,0.972 -0.75,0.086 -3.5,0.141 -3.972,0.141 -0.137,0 -0.195,-0.086 -0.195,-0.195 l 0,-2.446 c 0,-0.941 -0.028,-4.164 0,-4.746 0.082,-1.918 0.5,-2.277 3.222,-2.277 0.723,0 1.942,0 2.664,0.304 0.723,0.305 1.059,0.86 1.25,2 0.055,0.305 0.11,0.418 0.25,0.418 0.168,0 0.168,-0.222 0.168,-0.418 0,-0.222 -0.222,-2.113 -0.363,-2.695 -0.191,-0.719 -0.414,-0.719 -1.5,-0.719 -4.191,0 -6.051,0.164 -6.856,0.164 -0.054,0 -0.527,-0.027 -1.113,-0.027 -0.555,-0.027 -1.195,-0.055 -1.609,-0.055 -0.305,0 -0.446,0.055 -0.446,0.223 0,0.082 0.059,0.164 0.223,0.164 0.25,0 0.582,0.059 0.832,0.113 0.555,0.11 0.695,0.719 0.805,1.528 0.14,1.164 0.14,3.359 0.14,6.023 l 0,4.891"
                               style="fill:#231f20;fill-opacity:1;fill-rule:nonzero;stroke:none"
                               id="path4198"
                               inkscape:connector-curvature="0" /><path
                               d="m 201.109,40.504 c 0,-0.141 0.059,-0.25 0.196,-0.332 0.418,-0.25 1.695,-0.445 2.918,-0.445 0.664,0 1.441,0.082 2.082,0.527 0.972,0.668 1.691,2.168 1.691,4.277 0,3.473 -1.832,5.555 -4.801,5.555 -0.836,0 -1.586,-0.082 -1.863,-0.168 -0.141,-0.055 -0.223,-0.168 -0.223,-0.332 l 0,-9.082 z m -2.218,2.418 c 0,4.328 0,5.109 -0.055,5.996 -0.059,0.945 -0.281,1.391 -1.195,1.582 -0.223,0.059 -0.696,0.086 -0.946,0.086 -0.113,0 -0.218,0.055 -0.218,0.168 0,0.164 0.132,0.219 0.445,0.219 1.246,0 2.996,-0.082 3.133,-0.082 0.308,0 2.418,0.082 3.277,0.082 1.75,0 3.613,-0.168 5.082,-1.223 0.695,-0.5 1.918,-1.859 1.918,-3.773 0,-2.059 -0.863,-4.114 -3.359,-6.418 2.273,-2.914 4.164,-5.387 5.773,-7.106 1.5,-1.586 2.695,-1.891 3.391,-2 0.527,-0.086 0.914,-0.086 1.082,-0.086 0.136,0 0.25,-0.082 0.25,-0.164 0,-0.168 -0.168,-0.223 -0.668,-0.223 l -1.973,0 c -1.555,0 -2.25,0.141 -2.969,0.528 -1.195,0.637 -2.168,2 -3.75,4.082 -1.164,1.527 -2.472,3.387 -3.027,4.109 -0.109,0.113 -0.195,0.168 -0.359,0.168 l -3.418,0.055 c -0.137,0 -0.196,-0.082 -0.196,-0.223 l 0,-0.668 c 0,-2.664 0,-4.859 0.141,-6.023 0.082,-0.809 0.254,-1.418 1.082,-1.528 0.391,-0.054 1,-0.113 1.25,-0.113 0.168,0 0.223,-0.082 0.223,-0.164 0,-0.141 -0.141,-0.223 -0.446,-0.223 -1.527,0 -3.277,0.082 -3.414,0.082 -0.027,0 -1.777,-0.082 -2.609,-0.082 -0.309,0 -0.445,0.055 -0.445,0.223 0,0.082 0.054,0.164 0.222,0.164 0.25,0 0.582,0.059 0.832,0.113 0.559,0.11 0.696,0.719 0.805,1.528 0.141,1.164 0.141,3.359 0.141,6.023 l 0,4.891"
                               style="fill:#231f20;fill-opacity:1;fill-rule:nonzero;stroke:none"
                               id="path4200"
                               inkscape:connector-curvature="0" /><path
                               d="m 219.168,30.34 c -0.391,0.195 -0.418,0.305 -0.418,1.055 0,1.386 0.113,2.5 0.141,2.945 0.027,0.305 0.082,0.445 0.222,0.445 0.164,0 0.196,-0.086 0.196,-0.305 0,-0.253 0,-0.64 0.082,-1.031 0.414,-2.054 2.25,-2.832 4.109,-2.832 2.664,0 3.973,1.918 3.973,3.695 0,1.915 -0.809,3.024 -3.196,4.997 l -1.25,1.027 c -2.941,2.418 -3.609,4.141 -3.609,6.027 0,2.973 2.223,5 5.75,5 1.082,0 1.887,-0.113 2.582,-0.277 0.527,-0.113 0.746,-0.141 0.969,-0.141 0.222,0 0.281,-0.054 0.281,-0.191 0,-0.141 -0.113,-1.059 -0.113,-2.945 0,-0.446 -0.055,-0.641 -0.196,-0.641 -0.164,0 -0.195,0.141 -0.218,0.363 -0.032,0.332 -0.196,1.082 -0.364,1.387 -0.164,0.309 -0.914,1.473 -3.468,1.473 -1.918,0 -3.418,-1.196 -3.418,-3.223 0,-1.582 0.777,-2.523 3.386,-4.664 l 0.782,-0.613 c 3.273,-2.582 4.05,-4.301 4.05,-6.524 0,-1.14 -0.441,-3.246 -2.359,-4.609 -1.195,-0.832 -2.691,-1.168 -4.191,-1.168 -1.309,0 -2.582,0.195 -3.723,0.75"
                               style="fill:#231f20;fill-opacity:1;fill-rule:nonzero;stroke:none"
                               id="path4202"
                               inkscape:connector-curvature="0" /><path
                               d="m 240.496,38.031 c 0,-2.664 0,-4.859 0.137,-6.023 0.082,-0.809 0.25,-1.418 1.082,-1.528 0.39,-0.054 1.004,-0.113 1.254,-0.113 0.164,0 0.219,-0.082 0.219,-0.164 0,-0.141 -0.137,-0.223 -0.446,-0.223 -1.527,0 -3.273,0.082 -3.414,0.082 -0.14,0 -1.887,-0.082 -2.723,-0.082 -0.304,0 -0.441,0.055 -0.441,0.223 0,0.082 0.055,0.164 0.223,0.164 0.246,0 0.582,0.059 0.832,0.113 0.554,0.11 0.691,0.719 0.804,1.528 0.137,1.164 0.137,3.359 0.137,6.023 l 0,4.891 c 0,4.328 0,5.109 -0.051,5.996 -0.058,0.945 -0.336,1.418 -0.949,1.555 -0.305,0.086 -0.664,0.113 -0.859,0.113 -0.113,0 -0.219,0.055 -0.219,0.168 0,0.164 0.137,0.219 0.441,0.219 0.918,0 2.665,-0.082 2.805,-0.082 0.141,0 1.887,0.082 2.723,0.082 0.304,0 0.445,-0.055 0.445,-0.219 0,-0.113 -0.113,-0.168 -0.226,-0.168 -0.192,0 -0.36,-0.027 -0.692,-0.086 -0.75,-0.137 -0.973,-0.609 -1.027,-1.582 -0.055,-0.887 -0.055,-1.668 -0.055,-5.996 l 0,-4.891"
                               style="fill:#231f20;fill-opacity:1;fill-rule:nonzero;stroke:none"
                               id="path4204"
                               inkscape:connector-curvature="0" /><path
                               d="m 257.684,38.031 c 0,-2.664 0,-4.859 0.14,-6.023 0.078,-0.809 0.25,-1.418 1.082,-1.528 0.387,-0.054 1,-0.113 1.25,-0.113 0.164,0 0.223,-0.082 0.223,-0.164 0,-0.141 -0.141,-0.223 -0.445,-0.223 -1.528,0 -3.278,0.082 -3.418,0.082 -0.141,0 -1.887,-0.082 -2.723,-0.082 -0.301,0 -0.441,0.055 -0.441,0.223 0,0.082 0.054,0.164 0.222,0.164 0.25,0 0.582,0.059 0.832,0.113 0.555,0.11 0.696,0.719 0.805,1.528 0.141,1.164 0.141,3.359 0.141,6.023 l 0,11.746 -4.11,-0.054 c -1.722,-0.028 -2.39,-0.223 -2.832,-0.887 -0.305,-0.473 -0.39,-0.664 -0.472,-0.859 -0.086,-0.223 -0.168,-0.278 -0.278,-0.278 -0.082,0 -0.14,0.082 -0.14,0.25 0,0.278 0.554,2.664 0.609,2.883 0.059,0.168 0.168,0.531 0.281,0.531 0.192,0 0.469,-0.277 1.223,-0.336 0.801,-0.082 1.859,-0.136 2.191,-0.136 l 10.414,0 c 0.887,0 1.528,0.082 1.969,0.136 0.418,0.086 0.668,0.141 0.781,0.141 0.137,0 0.137,-0.168 0.137,-0.336 0,-0.828 -0.082,-2.746 -0.082,-3.051 0,-0.25 -0.082,-0.363 -0.195,-0.363 -0.137,0 -0.196,0.086 -0.223,0.473 l -0.027,0.308 c -0.11,0.832 -0.75,1.469 -3.414,1.524 l -3.5,0.054 0,-11.746"
                               style="fill:#231f20;fill-opacity:1;fill-rule:nonzero;stroke:none"
                               id="path4206"
                               inkscape:connector-curvature="0" /><path
                               d="m 276.039,37.172 c 0,1.5 -0.277,2.109 -0.641,2.918 -0.191,0.441 -3.918,6.551 -4.886,7.996 -0.696,1.027 -1.391,1.723 -1.887,2.055 -0.418,0.277 -0.945,0.445 -1.195,0.445 -0.141,0 -0.282,0.055 -0.282,0.191 0,0.114 0.118,0.196 0.364,0.196 0.527,0 2.609,-0.082 2.75,-0.082 0.195,0 1.25,0.082 2.332,0.082 0.304,0 0.363,-0.082 0.363,-0.196 0,-0.109 -0.168,-0.136 -0.418,-0.246 -0.223,-0.113 -0.363,-0.277 -0.363,-0.5 0,-0.336 0.14,-0.668 0.363,-1.086 0.445,-0.804 4.609,-7.968 5.109,-8.773 0.528,1.168 4.055,7.246 4.61,8.164 0.359,0.582 0.472,1.055 0.472,1.414 0,0.391 -0.113,0.695 -0.445,0.781 -0.25,0.082 -0.414,0.137 -0.414,0.274 0,0.113 0.164,0.168 0.441,0.168 0.723,0 1.614,-0.082 1.836,-0.082 0.164,0 2.164,0.082 2.692,0.082 0.195,0 0.359,-0.055 0.359,-0.168 0,-0.137 -0.137,-0.219 -0.359,-0.219 -0.305,0 -0.832,-0.113 -1.278,-0.391 -0.554,-0.332 -0.859,-0.668 -1.472,-1.418 -0.914,-1.109 -4.801,-7.632 -5.301,-8.828 -0.418,-1 -0.418,-1.859 -0.418,-2.777 l 0,-2.387 c 0,-0.445 0,-1.613 0.082,-2.777 0.055,-0.809 0.305,-1.418 1.141,-1.528 0.386,-0.054 0.996,-0.113 1.246,-0.113 0.168,0 0.222,-0.082 0.222,-0.164 0,-0.141 -0.136,-0.223 -0.441,-0.223 -1.527,0 -3.277,0.082 -3.418,0.082 -0.137,0 -1.887,-0.082 -2.719,-0.082 -0.308,0 -0.449,0.055 -0.449,0.223 0,0.082 0.059,0.164 0.227,0.164 0.246,0 0.582,0.059 0.832,0.113 0.554,0.11 0.804,0.719 0.859,1.528 0.086,1.164 0.086,2.332 0.086,2.777 l 0,2.387"
                               style="fill:#231f20;fill-opacity:1;fill-rule:nonzero;stroke:none"
                               id="path4208"
                               inkscape:connector-curvature="0" /><path
                               d="m 101.199,1.488 c 2.5,0 7.664,1.446 7.664,9.524 0,6.664 -4.054,10.25 -8.441,10.25 -4.637,0 -8.11,-3.055 -8.11,-9.137 0,-6.469 3.891,-10.637 8.887,-10.637 z m -0.582,20.715 c 6.246,0 10.914,-3.941 10.914,-10.41 0,-6.223 -4.39,-11.359 -11.082,-11.359 -7.609,0 -10.773,5.914 -10.773,10.914 0,4.496 3.273,10.855 10.941,10.855"
                               style="fill:#231f20;fill-opacity:1;fill-rule:nonzero;stroke:none"
                               id="path4210"
                               inkscape:connector-curvature="0" /><path
                               d="m 118.809,13.762 c 0,4.332 0,5.113 -0.055,6 -0.055,0.941 -0.277,1.386 -1.192,1.582 -0.222,0.058 -0.695,0.086 -0.945,0.086 -0.109,0 -0.222,0.054 -0.222,0.164 0,0.164 0.14,0.222 0.445,0.222 1.25,0 3,-0.086 3.137,-0.086 0.554,0 6.191,0 6.832,0.028 0.527,0.027 0.968,0.027 1.218,0.113 0.168,0.055 0.282,0.168 0.391,0.168 0.113,0 0.168,-0.113 0.168,-0.254 0,-0.191 -0.141,-0.523 -0.223,-1.301 -0.027,-0.281 -0.082,-1.5 -0.14,-1.836 -0.028,-0.136 -0.082,-0.304 -0.223,-0.304 -0.137,0 -0.195,0.14 -0.195,0.332 0,0.226 -0.082,0.695 -0.246,1.054 -0.168,0.364 -0.805,0.864 -1.887,0.891 l -4.281,0.082 c -0.164,0 -0.246,-0.082 -0.246,-0.305 l 0,-7.664 c 0,-0.168 0.027,-0.25 0.191,-0.25 l 3.555,0.028 c 0.472,0 0.863,0 1.25,0.027 0.668,0.055 1.031,0.141 1.277,0.5 0.113,0.141 0.195,0.281 0.305,0.281 0.113,0 0.14,-0.086 0.14,-0.226 0,-0.164 -0.14,-0.633 -0.222,-1.555 -0.055,-0.555 -0.11,-1.664 -0.11,-1.859 0,-0.25 0,-0.528 -0.195,-0.528 -0.137,0 -0.195,0.11 -0.195,0.25 -0.028,0.278 -0.055,0.668 -0.164,1 -0.141,0.387 -0.586,0.887 -1.446,1 -0.695,0.082 -3.722,0.082 -4.195,0.082 -0.137,0 -0.191,-0.054 -0.191,-0.25 l 0,-2.359 c 0,-2.668 0,-4.859 0.136,-6.027 0.082,-0.805 0.25,-1.418 1.086,-1.524 0.383,-0.054 0.996,-0.113 1.246,-0.113 0.168,0 0.223,-0.082 0.223,-0.168 0,-0.137 -0.137,-0.219 -0.445,-0.219 -1.528,0 -3.274,0.082 -3.414,0.082 -0.137,0 -1.887,-0.082 -2.723,-0.082 -0.305,0 -0.442,0.055 -0.442,0.219 0,0.086 0.055,0.168 0.219,0.168 0.25,0 0.586,0.059 0.836,0.113 0.555,0.106 0.695,0.719 0.805,1.524 0.137,1.168 0.137,3.359 0.137,6.027 l 0,4.887"
                               style="fill:#231f20;fill-opacity:1;fill-rule:nonzero;stroke:none"
                               id="path4212"
                               inkscape:connector-curvature="0" /><path
                               d="m 145.441,13.762 c 0,4.332 0,5.113 -0.058,6 -0.051,0.941 -0.274,1.386 -1.192,1.582 -0.222,0.058 -0.695,0.086 -0.945,0.086 -0.109,0 -0.223,0.054 -0.223,0.164 0,0.164 0.141,0.222 0.446,0.222 1.25,0 2.945,-0.086 3.195,-0.086 0.25,0 1.914,0.086 2.746,0.086 0.309,0 0.445,-0.058 0.445,-0.222 0,-0.11 -0.109,-0.164 -0.222,-0.164 -0.195,0 -0.36,-0.028 -0.692,-0.086 -0.753,-0.11 -0.972,-0.61 -1.031,-1.582 -0.051,-0.887 -0.051,-1.668 -0.051,-6 l 0,-3.887 c 0,-3.996 0.887,-5.723 2.079,-6.859 1.363,-1.278 2.613,-1.528 4.195,-1.528 1.695,0 3.359,0.805 4.359,2 1.278,1.582 1.61,3.946 1.61,6.805 l 0,3.469 c 0,4.332 0,5.113 -0.055,6 -0.055,0.941 -0.277,1.386 -1.192,1.582 -0.226,0.058 -0.695,0.086 -0.945,0.086 -0.109,0 -0.222,0.054 -0.222,0.164 0,0.164 0.14,0.222 0.441,0.222 1.254,0 2.781,-0.086 2.945,-0.086 0.196,0 1.5,0.086 2.332,0.086 0.309,0 0.446,-0.058 0.446,-0.222 0,-0.11 -0.11,-0.164 -0.223,-0.164 -0.191,0 -0.359,0 -0.691,-0.086 -0.75,-0.137 -0.973,-0.61 -1.028,-1.582 -0.058,-0.887 -0.058,-1.668 -0.058,-6 l 0,-2.973 c 0,-2.996 -0.332,-6.328 -2.555,-8.301 -2,-1.777 -4.082,-2.054 -5.719,-2.054 -0.945,0 -3.746,0.109 -5.719,1.972 -1.363,1.305 -2.418,3.25 -2.418,7.301 l 0,4.055"
                               style="fill:#231f20;fill-opacity:1;fill-rule:nonzero;stroke:none"
                               id="path4214"
                               inkscape:connector-curvature="0" /><path
                               d="m 177.402,8.875 c 0,-2.668 0,-4.859 0.141,-6.027 0.082,-0.805 0.25,-1.418 1.082,-1.524 0.391,-0.054 1,-0.113 1.25,-0.113 0.168,0 0.223,-0.082 0.223,-0.168 0,-0.137 -0.141,-0.219 -0.446,-0.219 -1.527,0 -3.277,0.082 -3.418,0.082 -0.136,0 -1.886,-0.082 -2.718,-0.082 -0.305,0 -0.446,0.055 -0.446,0.219 0,0.086 0.055,0.168 0.223,0.168 0.25,0 0.582,0.059 0.832,0.113 0.555,0.106 0.695,0.719 0.805,1.524 0.14,1.168 0.14,3.359 0.14,6.027 l 0,11.746 -4.109,-0.055 c -1.723,-0.027 -2.391,-0.222 -2.832,-0.89 -0.305,-0.469 -0.391,-0.664 -0.473,-0.86 -0.082,-0.222 -0.164,-0.277 -0.277,-0.277 -0.082,0 -0.141,0.082 -0.141,0.25 0,0.277 0.555,2.668 0.61,2.887 0.058,0.168 0.172,0.527 0.281,0.527 0.191,0 0.473,-0.277 1.223,-0.332 0.804,-0.086 1.859,-0.141 2.195,-0.141 l 10.41,0 c 0.887,0 1.527,0.086 1.973,0.141 0.418,0.082 0.668,0.141 0.777,0.141 0.137,0 0.137,-0.168 0.137,-0.336 0,-0.832 -0.082,-2.746 -0.082,-3.055 0,-0.25 -0.082,-0.359 -0.196,-0.359 -0.136,0 -0.191,0.082 -0.218,0.472 l -0.032,0.305 c -0.109,0.832 -0.75,1.473 -3.414,1.527 l -3.5,0.055 0,-11.746"
                               style="fill:#231f20;fill-opacity:1;fill-rule:nonzero;stroke:none"
                               id="path4216"
                               inkscape:connector-curvature="0" /><path
                               d="m 197.707,10.016 c 0.137,0 0.137,0.082 0.105,0.191 l -2.632,7.496 c -0.141,0.418 -0.282,0.418 -0.418,0 l -2.446,-7.496 c -0.054,-0.137 0,-0.191 0.086,-0.191 l 5.305,0 z m -2.891,11.105 c 0.336,0.918 0.442,1.082 0.614,1.082 0.164,0 0.273,-0.137 0.609,-0.996 0.414,-1.059 4.773,-12.527 6.473,-16.746 0.996,-2.473 1.8,-2.918 2.383,-3.082 0.417,-0.141 0.835,-0.168 1.113,-0.168 0.168,0 0.277,-0.027 0.277,-0.168 0,-0.164 -0.25,-0.219 -0.555,-0.219 -0.418,0 -2.445,0 -4.359,0.055 -0.527,0.027 -0.832,0.027 -0.832,0.191 0,0.114 0.082,0.168 0.191,0.2 0.168,0.054 0.332,0.3 0.168,0.746 l -2.582,6.832 c -0.058,0.109 -0.113,0.164 -0.25,0.164 l -5.972,0 c -0.137,0 -0.223,-0.082 -0.278,-0.219 l -1.664,-4.918 c -0.25,-0.691 -0.39,-1.359 -0.39,-1.859 0,-0.559 0.586,-0.805 1.054,-0.805 l 0.282,0 c 0.191,0 0.277,-0.055 0.277,-0.168 0,-0.164 -0.172,-0.219 -0.418,-0.219 -0.668,0 -1.863,0.082 -2.168,0.082 -0.301,0 -1.832,-0.082 -3.137,-0.082 -0.363,0 -0.527,0.055 -0.527,0.219 0,0.113 0.109,0.168 0.25,0.168 0.195,0 0.582,0.027 0.805,0.059 1.277,0.16 1.836,1.218 2.336,2.605 l 6.3,17.246"
                               style="fill:#231f20;fill-opacity:1;fill-rule:nonzero;stroke:none"
                               id="path4218"
                               inkscape:connector-curvature="0" /><path
                               d="m 228.418,8.875 c 0,-2.668 0,-4.859 0.141,-6.027 0.082,-0.805 0.25,-1.418 1.078,-1.524 0.39,-0.054 1.004,-0.113 1.254,-0.113 0.164,0 0.222,-0.082 0.222,-0.168 0,-0.137 -0.14,-0.219 -0.445,-0.219 -1.527,0 -3.277,0.082 -3.418,0.082 -0.137,0 -1.887,-0.082 -2.723,-0.082 -0.3,0 -0.441,0.055 -0.441,0.219 0,0.086 0.055,0.168 0.223,0.168 0.25,0 0.582,0.059 0.832,0.113 0.554,0.106 0.695,0.719 0.804,1.524 0.141,1.168 0.141,3.359 0.141,6.027 l 0,2.918 c 0,0.109 -0.086,0.164 -0.168,0.164 l -11.773,0 c -0.086,0 -0.168,-0.027 -0.168,-0.164 l 0,-2.918 c 0,-2.668 0,-4.859 0.14,-6.027 0.082,-0.805 0.25,-1.418 1.082,-1.524 0.391,-0.054 1,-0.113 1.25,-0.113 0.168,0 0.223,-0.082 0.223,-0.168 0,-0.137 -0.141,-0.219 -0.445,-0.219 -1.528,0 -3.278,0.082 -3.415,0.082 -0.14,0 -1.89,-0.082 -2.722,-0.082 -0.305,0 -0.445,0.055 -0.445,0.219 0,0.086 0.054,0.168 0.222,0.168 0.25,0 0.582,0.059 0.832,0.113 0.559,0.106 0.696,0.719 0.805,1.524 0.141,1.168 0.141,3.359 0.141,6.027 l 0,4.887 c 0,4.332 0,5.113 -0.055,6 -0.055,0.941 -0.278,1.386 -1.195,1.582 -0.223,0.058 -0.696,0.086 -0.946,0.086 -0.109,0 -0.219,0.054 -0.219,0.164 0,0.164 0.137,0.222 0.442,0.222 1.25,0 3,-0.086 3.14,-0.086 0.137,0 1.887,0.086 2.723,0.086 0.305,0 0.442,-0.058 0.442,-0.222 0,-0.11 -0.114,-0.164 -0.223,-0.164 -0.195,0 -0.359,-0.028 -0.692,-0.086 -0.75,-0.137 -0.976,-0.61 -1.031,-1.582 -0.054,-0.887 -0.054,-1.668 -0.054,-6 l 0,-0.582 c 0,-0.141 0.082,-0.168 0.168,-0.168 l 11.773,0 c 0.082,0 0.168,0.027 0.168,0.168 l 0,0.582 c 0,4.332 0,5.113 -0.055,6 -0.058,0.941 -0.281,1.386 -1.195,1.582 -0.223,0.058 -0.695,0.086 -0.945,0.086 -0.11,0 -0.223,0.054 -0.223,0.164 0,0.164 0.141,0.222 0.445,0.222 1.25,0 3,-0.086 3.137,-0.086 0.141,0 1.891,0.086 2.723,0.086 0.304,0 0.445,-0.058 0.445,-0.222 0,-0.11 -0.113,-0.164 -0.223,-0.164 -0.195,0 -0.359,-0.028 -0.695,-0.086 -0.75,-0.137 -0.973,-0.61 -1.027,-1.582 -0.055,-0.887 -0.055,-1.668 -0.055,-6 l 0,-4.887"
                               style="fill:#231f20;fill-opacity:1;fill-rule:nonzero;stroke:none"
                               id="path4220"
                               inkscape:connector-curvature="0" /><path
                               d="m 239.805,17.855 0.55,0 c 0.622,0 1.157,0.227 1.157,0.817 0,0.414 -0.305,0.832 -1.157,0.832 -0.25,0 -0.417,-0.02 -0.55,-0.039 l 0,-1.61 z m 0,-2.636 -0.758,0 0,4.758 c 0.398,0.058 0.777,0.117 1.344,0.117 0.718,0 1.195,-0.153 1.476,-0.364 0.285,-0.207 0.442,-0.531 0.442,-0.984 0,-0.625 -0.418,-1.004 -0.93,-1.156 l 0,-0.039 c 0.418,-0.074 0.699,-0.457 0.797,-1.156 0.109,-0.739 0.226,-1.024 0.301,-1.176 l -0.797,0 c -0.114,0.152 -0.227,0.59 -0.321,1.215 -0.113,0.605 -0.414,0.832 -1.023,0.832 l -0.531,0 0,-2.047 z m 0.797,6.09 c -1.879,0 -3.414,-1.614 -3.414,-3.606 0,-2.027 1.535,-3.621 3.433,-3.621 1.895,-0.02 3.414,1.594 3.414,3.602 0,2.011 -1.519,3.625 -3.414,3.625 l -0.019,0 z m 0.019,0.66 c 2.332,0 4.191,-1.895 4.191,-4.266 0,-2.406 -1.859,-4.285 -4.21,-4.285 -2.332,0 -4.231,1.879 -4.231,4.285 0,2.371 1.899,4.266 4.231,4.266 l 0.019,0"
                               style="fill:#231f20;fill-opacity:1;fill-rule:nonzero;stroke:none"
                               id="path4222"
                               inkscape:connector-curvature="0" /></g></g></g></g></g></g></g></g></g></g></g></g></g></svg>