<?xml version="1.0" encoding="UTF-8" standalone="no"?>
<svg
   xmlns:dc="http://purl.org/dc/elements/1.1/"
   xmlns:cc="http://creativecommons.org/ns#"
   xmlns:rdf="http://www.w3.org/1999/02/22-rdf-syntax-ns#"
   xmlns:svg="http://www.w3.org/2000/svg"
   xmlns="http://www.w3.org/2000/svg"
   xmlns:sodipodi="http://sodipodi.sourceforge.net/DTD/sodipodi-0.dtd"
   xmlns:inkscape="http://www.inkscape.org/namespaces/inkscape"
   version="1.1"
   width="358.51999"
   height="96.715996"
   viewBox="0 0 358.51999 96.715999"
   id="svg2"
   xml:space="preserve"
   inkscape:version="0.91 r13725"
   sodipodi:docname="rwthaachen_logo.svg"><sodipodi:namedview
     pagecolor="#ffffff"
     bordercolor="#666666"
     borderopacity="1"
     objecttolerance="10"
     gridtolerance="10"
     guidetolerance="10"
     inkscape:pageopacity="0"
     inkscape:pageshadow="2"
     inkscape:window-width="640"
     inkscape:window-height="480"
     id="namedview9"
     showgrid="false"
     fit-margin-top="0"
     fit-margin-left="0"
     fit-margin-right="0"
     fit-margin-bottom="0"
     inkscape:zoom="0.67338607"
     inkscape:cx="203.67661"
     inkscape:cy="55.019278"
     inkscape:window-x="0"
     inkscape:window-y="0"
     inkscape:window-maximized="0"
     inkscape:current-layer="svg2" /><metadata
     id="metadata15"><rdf:RDF><cc:Work
         rdf:about=""><dc:format>image/svg+xml</dc:format><dc:type
           rdf:resource="http://purl.org/dc/dcmitype/StillImage" /><dc:title></dc:title></cc:Work></rdf:RDF></metadata><defs
     id="defs13" /><!-- RGB 0-84-159 --><!-- RGB 142-186-229 --><g
     id="g3337"
     transform="translate(-51.295998,-58.536572)"><path
       style="fill:#00549f;fill-rule:evenodd"
       id="rwth"
       d="m 66.473998,104.81357 -0.582,0 -14.596,0 0,-5.139998 0,-40.143 0,-0.337 14.565,0 0.03,0 10.293,0 c 6.75,-0.001 12.57,4.368 14.469,10.161 1.76,5.366 0.256,11.199 -3.713,15.348 0.528,1.431 1.042,2.548 1.532,3.833 1.101,2.54 2.111,5.08 3.212,7.589 l 3.611,8.688998 -0.092,0 -15.299,0 c 0,0.007 -0.123,-0.368 -0.245,-0.52 -0.611,-1.346 -1.162,-2.785 -1.774,-4.131 l -3.702,-8.780998 c -1.468,-3.55 -2.937,-6.903 -4.406,-10.453 1.834,-0.049 3.204,0.294 4.974,-0.518 1.242,-0.613 3.127,-2.133 3.175,-5.047 -0.048,-1.446 -0.448,-2.54 -1.403,-3.677 -0.959,-1.058 -2.346,-1.842 -4.152,-1.868 0,0 -5.9,-0.003 -5.896,0 l 0,34.994998 z M 217.744,59.201572 l -7.917,0 0,16.46 -9.891,0 -0.734,0 0,-13.614 0,-2.846 -10.953,0 -38.552,0 -10.648,0 -1.254,0 0,20.5 c 0.122,0.948 0.336,1.896 0.428,2.876 l -4.1,-9.332 c -1.836,-4.284 -3.58,-8.568 -5.416,-12.882 -0.153,-0.398 -0.262,-0.665 -0.46,-1.162 l -15.665,0 c 0,2.233 0.031,4.711 0,6.884 l 0,13.616 c 0.153,0.856 0.429,1.988 0.552,2.876 l -0.092,-0.184 c -3.366,-7.68 -6.609,-15.39 -9.821,-23.192 l -15.630002,0 c 0.306,0.918 0.795,1.744 1.102,2.662 l 3.452,8.085 2.409,5.66 0.153,0.344 c 1.108,2.639 1.985,4.706 3.06,7.244 3.099002,7.328 6.081002,14.403 9.187002,21.623998 l 15.665,0 0,-23.864998 c 0.397,1.346 0.704,2.723 1.01,4.1 2.662,6.547 5.539,13.187 8.261,19.764998 l 15.635,0 0,-18.510998 0,-16.552 10.707,0 0,15.42 0,0.734 0,18.908998 15.056,0 0.123,0 0,-15.634998 0,-15.023 0,-3.304 0,-1.101 10.614,0 0,35.062998 6.702,0 c 2.754,-0.03 5.723,0 8.476,0 l 0,-18.601998 0.123,0 9.087,0 1.415,0 0,18.601998 3.327,0 11.851,0 0,-45.618998 -7.262,0 z"
       inkscape:connector-curvature="0" /><path
       style="fill:#8ebae5;fill-rule:evenodd"
       id="aachen"
       d="m 278.943,59.427572 -11.321,0 -9.476,35.802 -9.478,-35.802 -11.323,0 -12.02,45.416998 9.542,0 2.098,-9.604998 12.086,0 2.099,9.604998 13.992,0 2.098,-9.604998 12.087,0 2.099,9.604998 9.541,0 -12.024,-45.416998 z m -40.388,28.306 4.39,-20.418 0.127,0 4.388,20.418 -8.905,0 z m 30.276,0 4.39,-20.418 0.127,0 4.387,20.418 -8.904,0 z m 40.261,-12.976 c 0,-6.616 -1.336,-9.478 -5.471,-9.478 -4.644,0 -5.726,4.644 -5.726,17.492 0,13.74 1.909,16.22 5.853,16.22 3.309,0 5.724,-1.717 5.724,-11.513 l 9.161,0 c 0,9.796 -2.418,18.255998 -14.438,18.255998 -13.741,0 -15.457,-9.795998 -15.457,-23.597998 0,-13.804 1.716,-23.6 15.457,-23.6 13.103,0 14.055,9.605 14.055,16.221 l -9.158,0 z m 10.935,-15.329 9.157,0 0,17.364 10.688,0 0,-17.364 9.159,0 0,45.415998 -9.159,0 0,-20.163998 -10.688,0 0,20.163998 -9.157,0 0,-45.415998 z m 56.925,-0.001 0,7.505 -16.22,0 0,10.686 15.264,0 0,7.507 -15.264,0 0,12.212 16.856,0 0,7.505998 -26.018,0 0,-45.415998 25.382,0 z m 13.234,0 11.067,31.104 0.126,0 0,-31.104 8.397,0 0,45.415998 -10.433,0 -11.192,-31.803998 -0.131,0 0,31.803998 -8.395,0 0,-45.415998 10.561,0 z"
       inkscape:connector-curvature="0" /><path
       style="fill:#8ebae5;fill-rule:evenodd"
       id="university"
       d="m 291.139,115.68757 4.327,0 c 4.134,0 6.359,2.099 6.359,6.296 0,4.9 -2.479,6.809 -6.87,6.809 l -3.816,0 0,-13.105 z m -9.158,38.675 9.158,0 0,-19.211 4.899,0 c 3.688,0 5.277,2.162 5.407,5.723 l 0.253,8.715 c 0.063,1.782 0.253,3.5 1.146,4.773 l 9.921,0 0,-0.383 c -1.716,-0.89 -1.972,-3.371 -2.036,-8.142 -0.126,-9.604 -1.079,-13.038 -7.312,-13.868 l 0,-0.126 c 5.15,-1.083 7.568,-5.153 7.568,-11.196 0,-7.759 -4.58,-11.703 -12.085,-11.703 l -16.92,0 0,45.418 z m -134.765,-45.418 0,31.677 c 0,12.149 7.062,14.631 14.503,14.631 7.443,0 14.503,-3.055 14.503,-14.631 l 0,-31.677 -9.16,0 0,31.677 c 0,4.517 -1.081,7.888 -5.343,7.888 -4.262,0 -5.343,-3.371 -5.343,-7.888 l 0,-31.677 -9.16,0 z m 30.969,0 0,45.418 8.396,0 0,-31.806 0.127,0 11.196,31.806 10.432,0 0,-45.418 -8.397,0 0,31.104 -0.127,0 -11.067,-31.104 -10.56,0 z m 41.665,0 -9.159,0 0,45.418 9.159,0 0,-45.418 z m 0.629,0 10.432,45.418 11.767,0 10.434,-45.418 -9.478,0 -6.746,33.586 -0.189,0 -6.423,-33.586 -9.797,0 z m 33.446,0 0,45.418 26.018,0 0,-7.508 -16.859,0 0,-12.212 15.267,0 0,-7.506 -15.267,0 0,-10.687 16.223,0 0,-7.505 -25.382,0 z m 57.822,31.231 0,1.845 c 0,8.398 4.071,13.232 14.438,13.232 9.925,0 15.774,-4.327 15.774,-13.931 0,-5.534 -1.78,-9.031 -8.649,-12.023 l -7.062,-3.051 c -3.881,-1.656 -4.707,-3.372 -4.707,-6.17 0,-2.672 1.083,-5.28 5.217,-5.28 3.498,0 4.96,2.482 4.96,6.743 l 8.778,0 0,-1.273 c 0,-8.715 -5.913,-12.212 -14.059,-12.212 -8.647,0 -14.055,4.517 -14.055,13.358 0,7.569 3.752,10.94 11.893,13.738 6.043,2.099 8.143,3.625 8.143,7.762 0,3.814 -2.672,5.597 -5.47,5.597 -4.834,0 -6.043,-2.735 -6.043,-6.999 l 0,-1.336 -9.158,0 z m 40.57,-31.231 -9.161,0 0,45.418 9.161,0 0,-45.418 z m 47.574,0 -6.359,17.556 -0.127,0 -5.979,-17.556 -33.908,0 0,7.505 9.924,0 0,37.913 9.158,0 0,-37.913 7.727,0 8.562,20.038 0,17.875 9.16,0 0,-17.875 11.767,-27.543 -9.925,0 z"
       inkscape:connector-curvature="0" /></g><!-- RGB 142-186-229 --></svg>