<?xml version="1.0" encoding="UTF-8" standalone="no"?>
<svg
   xmlns:dc="http://purl.org/dc/elements/1.1/"
   xmlns:cc="http://creativecommons.org/ns#"
   xmlns:rdf="http://www.w3.org/1999/02/22-rdf-syntax-ns#"
   xmlns:svg="http://www.w3.org/2000/svg"
   xmlns="http://www.w3.org/2000/svg"
   version="1.1"
   width="460.35999"
   height="200.46658"
   viewBox="0 0 460.35999 200.46659"
   id="svg2"
   xml:space="preserve"><metadata
   id="metadata15"><rdf:RDF><cc:Work
       rdf:about=""><dc:format>image/svg+xml</dc:format><dc:type
         rdf:resource="http://purl.org/dc/dcmitype/StillImage" /><dc:title></dc:title></cc:Work></rdf:RDF></metadata><defs
   id="defs13" />
<rect
   width="460.35999"
   height="200.46658"
   x="0"
   y="0"
   id="background"
   style="fill:white;" />
<path
   d="m 66.473998,104.81357 h -0.582 -14.596 v -5.139998 -40.143 -0.337 h 14.565 0.03 10.293 c 6.75,-0.001 12.57,4.368 14.469,10.161 1.76,5.366 0.256,11.199 -3.713,15.348 0.528,1.431 1.042,2.548 1.532,3.833 1.101,2.54 2.111,5.08 3.212,7.589 l 3.611,8.688998 h -0.092 -15.299 c 0,0.007 -0.123,-0.368 -0.245,-0.52 -0.611,-1.346 -1.162,-2.785 -1.774,-4.131 l -3.702,-8.780998 c -1.468,-3.55 -2.937,-6.903 -4.406,-10.453 1.834,-0.049 3.204,0.294 4.974,-0.518 1.242,-0.613 3.127,-2.133 3.175,-5.047 -0.048,-1.446 -0.448,-2.54 -1.403,-3.677 -0.959,-1.058 -2.346,-1.842 -4.152,-1.868 0,0 -5.9,-0.003 -5.896,0 V 104.81357 z M 217.744,59.201572 h -7.917 v 16.46 h -9.891 -0.734 v -13.614 -2.846 h -10.953 -38.552 -10.648 -1.254 v 20.5 c 0.122,0.948 0.336,1.896 0.428,2.876 l -4.1,-9.332 c -1.836,-4.284 -3.58,-8.568 -5.416,-12.882 -0.153,-0.398 -0.262,-0.665 -0.46,-1.162 h -15.665 c 0,2.233 0.031,4.711 0,6.884 v 13.616 c 0.153,0.856 0.429,1.988 0.552,2.876 l -0.092,-0.184 c -3.366,-7.68 -6.609,-15.39 -9.821,-23.192 H 87.590998 c 0.306,0.918 0.795,1.744 1.102,2.662 l 3.452,8.085 2.409,5.66 0.153,0.344 c 1.108,2.639 1.985,4.706 3.06,7.244 3.099002,7.328 6.081002,14.403 9.187002,21.623998 h 15.665 V 80.955572 c 0.397,1.346 0.704,2.723 1.01,4.1 2.662,6.547 5.539,13.187 8.261,19.764998 h 15.635 v -18.510998 -16.552 h 10.707 v 15.42 0.734 18.908998 h 15.056 0.123 v -15.634998 -15.023 -3.304 -1.101 h 10.614 v 35.062998 h 6.702 c 2.754,-0.03 5.723,0 8.476,0 V 86.218572 h 0.123 9.087 1.415 v 18.601998 h 3.327 11.851 V 59.201572 h -7.262 z"
   id="rwth"
   style="fill:#00549f;fill-rule:evenodd" /><!-- RGB 0-84-159 -->
<path
   d="m 278.943,59.427572 h -11.321 l -9.476,35.802 -9.478,-35.802 h -11.323 l -12.02,45.416998 h 9.542 l 2.098,-9.604998 h 12.086 l 2.099,9.604998 h 13.992 l 2.098,-9.604998 h 12.087 l 2.099,9.604998 h 9.541 L 278.943,59.427572 z m -40.388,28.306 4.39,-20.418 h 0.127 l 4.388,20.418 h -8.905 z m 30.276,0 4.39,-20.418 h 0.127 l 4.387,20.418 h -8.904 z m 40.261,-12.976 c 0,-6.616 -1.336,-9.478 -5.471,-9.478 -4.644,0 -5.726,4.644 -5.726,17.492 0,13.74 1.909,16.22 5.853,16.22 3.309,0 5.724,-1.717 5.724,-11.513 h 9.161 c 0,9.796 -2.418,18.255998 -14.438,18.255998 -13.741,0 -15.457,-9.795998 -15.457,-23.597998 0,-13.804 1.716,-23.6 15.457,-23.6 13.103,0 14.055,9.605 14.055,16.221 h -9.158 z m 10.935,-15.329 h 9.157 v 17.364 h 10.688 v -17.364 h 9.159 v 45.415998 h -9.159 V 84.680572 h -10.688 v 20.163998 h -9.157 V 59.428572 z m 56.925,-0.001 v 7.505 h -16.22 v 10.686 h 15.264 v 7.507 h -15.264 v 12.212 h 16.856 v 7.505998 H 351.57 V 59.427572 h 25.382 z m 13.234,0 11.067,31.104 h 0.126 v -31.104 h 8.397 V 104.84357 H 399.343 L 388.151,73.039572 h -0.131 v 31.803998 h -8.395 V 59.427572 h 10.561 z"
   id="aachen"
   style="fill:#8ebae5;fill-rule:evenodd" /><!-- RGB 142-186-229 -->
<path
   d="m 291.139,115.68757 h 4.327 c 4.134,0 6.359,2.099 6.359,6.296 0,4.9 -2.479,6.809 -6.87,6.809 h -3.816 v -13.105 z m -9.158,38.675 h 9.158 v -19.211 h 4.899 c 3.688,0 5.277,2.162 5.407,5.723 l 0.253,8.715 c 0.063,1.782 0.253,3.5 1.146,4.773 h 9.921 v -0.383 c -1.716,-0.89 -1.972,-3.371 -2.036,-8.142 -0.126,-9.604 -1.079,-13.038 -7.312,-13.868 v -0.126 c 5.15,-1.083 7.568,-5.153 7.568,-11.196 0,-7.759 -4.58,-11.703 -12.085,-11.703 h -16.92 v 45.418 z m -134.765,-45.418 v 31.677 c 0,12.149 7.062,14.631 14.503,14.631 7.443,0 14.503,-3.055 14.503,-14.631 v -31.677 h -9.16 v 31.677 c 0,4.517 -1.081,7.888 -5.343,7.888 -4.262,0 -5.343,-3.371 -5.343,-7.888 v -31.677 h -9.16 z m 30.969,0 v 45.418 h 8.396 v -31.806 h 0.127 l 11.196,31.806 h 10.432 v -45.418 h -8.397 v 31.104 h -0.127 l -11.067,-31.104 h -10.56 z m 41.665,0 h -9.159 v 45.418 h 9.159 v -45.418 z m 0.629,0 10.432,45.418 h 11.767 l 10.434,-45.418 h -9.478 l -6.746,33.586 h -0.189 l -6.423,-33.586 h -9.797 z m 33.446,0 v 45.418 h 26.018 v -7.508 h -16.859 v -12.212 h 15.267 v -7.506 h -15.267 v -10.687 h 16.223 v -7.505 h -25.382 z m 57.822,31.231 v 1.845 c 0,8.398 4.071,13.232 14.438,13.232 9.925,0 15.774,-4.327 15.774,-13.931 0,-5.534 -1.78,-9.031 -8.649,-12.023 l -7.062,-3.051 c -3.881,-1.656 -4.707,-3.372 -4.707,-6.17 0,-2.672 1.083,-5.28 5.217,-5.28 3.498,0 4.96,2.482 4.96,6.743 h 8.778 v -1.273 c 0,-8.715 -5.913,-12.212 -14.059,-12.212 -8.647,0 -14.055,4.517 -14.055,13.358 0,7.569 3.752,10.94 11.893,13.738 6.043,2.099 8.143,3.625 8.143,7.762 0,3.814 -2.672,5.597 -5.47,5.597 -4.834,0 -6.043,-2.735 -6.043,-6.999 v -1.336 h -9.158 z m 40.57,-31.231 h -9.161 v 45.418 h 9.161 v -45.418 z m 47.574,0 -6.359,17.556 h -0.127 l -5.979,-17.556 h -33.908 v 7.505 h 9.924 v 37.913 h 9.158 v -37.913 h 7.727 l 8.562,20.038 v 17.875 h 9.16 v -17.875 l 11.767,-27.543 h -9.925 z"
   id="university"
   style="fill:#8ebae5;fill-rule:evenodd" /><!-- RGB 142-186-229 -->
</svg>